<svg id="Lager_1" data-name="Lager 1" xmlns="http://www.w3.org/2000/svg" width="60" height="60" viewBox="0 0 60 60">
  <path d="M25.92,56.4a4,4,0,0,1-2.83-1.18L6.83,39a4,4,0,0,1,0-5.66L28.3,11.83a2,2,0,0,1,.79-.49l10.6-3.53a2,2,0,0,1,2.05.48l12,12a2,2,0,0,1,.48,2.05L50.71,33a2,2,0,0,1-.49.79L28.75,55.22h0A4,4,0,0,1,25.92,56.4ZM30.8,15,9.65,36.13,27.33,53.81,25.92,52.4,47.06,31.25l3-9L39.79,12Z" fill="#fff"/>
  <path d="M38.67,29.85a6.46,6.46,0,0,1-4.57-11h0a6.46,6.46,0,1,1,4.57,11Zm0-8.93a2.45,2.45,0,0,0-1.75.72h0a2.47,2.47,0,0,0,0,3.49,2.53,2.53,0,0,0,3.49,0,2.47,2.47,0,0,0,0-3.49A2.41,2.41,0,0,0,38.67,20.92Zm-3.16-.69h0Z" fill="#fff"/>
  <path d="M39.75,24.3a2,2,0,0,1-1.42-3.41l7.36-7.35a1.29,1.29,0,0,1,.17-.16c.56-.45,2.17-2.08,2.1-3.54,0-.87-.7-1.73-2-2.57a2,2,0,1,1,2.21-3.33c3,2,3.69,4.22,3.75,5.74.14,3.53-2.83,6.19-3.52,6.76l-7.28,7.28A2,2,0,0,1,39.75,24.3Z" fill="#fff"/>
</svg>
