<svg id="Lager_1" data-name="Lager 1" xmlns="http://www.w3.org/2000/svg" width="60" height="60" viewBox="0 0 60 60">
  <path d="M42.83,46.87H17.14a8,8,0,0,1-8-8,2,2,0,0,1,.09-.59l2.45-7.86A46.2,46.2,0,0,0,13.36,22C14.6,11.31,20.66,5.18,30,5.18S45.37,11.31,46.6,22a46.16,46.16,0,0,0,1.69,8.42l2.45,7.86a2,2,0,0,1,.09.59A8,8,0,0,1,42.83,46.87ZM13.15,39.15a4,4,0,0,0,4,3.72H42.83a4,4,0,0,0,4-3.72l-2.35-7.54a49.76,49.76,0,0,1-1.84-9.15c-.57-5-3-13.28-12.65-13.28S17.91,17.5,17.34,22.46a49.93,49.93,0,0,1-1.84,9.15Z" fill="#fff"/>
  <path d="M30.14,54.82a9.59,9.59,0,0,1-9.58-9.58v-2H39.72v2A9.59,9.59,0,0,1,30.14,54.82Zm-5.21-7.58a5.58,5.58,0,0,0,10.42,0Z" fill="#fff"/>
  <path d="M46.38,40H13.59a2,2,0,1,1,0-4H46.38a2,2,0,0,1,0,4Z" fill="#fff"/>
</svg>
