<svg id="Lager_1" data-name="Lager 1" xmlns="http://www.w3.org/2000/svg" width="60" height="60" viewBox="0 0 60 60">
  <path d="M30,55.19a25.19,25.19,0,0,1-17.81-43A25.19,25.19,0,1,1,30,55.19ZM30,8.81A21.19,21.19,0,1,0,51.19,30,21.05,21.05,0,0,0,30,8.81Z" fill="#fff"/>
  <path d="M30,46.6a2,2,0,0,1-1.2-.41C27.22,45,13.35,34.35,13.35,26.4A9.32,9.32,0,1,1,32,26.4a2,2,0,0,1-4,0,5.32,5.32,0,1,0-10.63,0c0,4.17,7.32,11.42,12.65,15.67,5.32-4.25,12.61-11.5,12.61-15.67a5.32,5.32,0,0,0-5.31-5.32,7.26,7.26,0,0,0-2.49.41,2,2,0,1,1-1.37-3.76,11.33,11.33,0,0,1,3.86-.65,9.32,9.32,0,0,1,9.31,9.32c0,8-13.83,18.6-15.41,19.79A2,2,0,0,1,30,46.6Z" fill="#fff"/>
</svg>
