<svg id="Lager_1" data-name="Lager 1" xmlns="http://www.w3.org/2000/svg" width="60" height="60" viewBox="0 0 60 60">
  <path d="M30,17.52A12.48,12.48,0,1,0,42.47,30,12.5,12.5,0,0,0,30,17.52Zm0,20.19A7.71,7.71,0,1,1,37.71,30,7.71,7.71,0,0,1,30,37.71ZM40.2,6H19.8A13.84,13.84,0,0,0,6,19.8V40.2A13.84,13.84,0,0,0,19.8,54H40.2A13.84,13.84,0,0,0,54,40.2V19.8A13.84,13.84,0,0,0,40.2,6ZM49.27,40.2a9.07,9.07,0,0,1-9.07,9.06H19.8a9.06,9.06,0,0,1-9.06-9.06V19.8a9.06,9.06,0,0,1,9.06-9.06H40.2a9.06,9.06,0,0,1,9.06,9.06V40.2ZM42.65,13.92a3.27,3.27,0,1,0,3.26,3.26A3.27,3.27,0,0,0,42.65,13.92Z" fill="#fff"/>
</svg>
