<svg id="Lager_1" data-name="Lager 1" xmlns="http://www.w3.org/2000/svg" width="60" height="60" viewBox="0 0 60 60">
  <path d="M42.84,53.75H17.16a8,8,0,0,1-8-8V20.06a8,8,0,0,1,8-8H42.84a8,8,0,0,1,8,8V45.75A8,8,0,0,1,42.84,53.75ZM17.16,16.06a4,4,0,0,0-4,4V45.75a4,4,0,0,0,4,4H42.84a4,4,0,0,0,4-4V20.06a4,4,0,0,0-4-4Z" fill="#fff"/>
  <g>
    <path d="M21,20.75a2,2,0,0,1-2-2V8.25a2,2,0,0,1,4,0v10.5A2,2,0,0,1,21,20.75Z" fill="#fff"/>
    <path d="M30,20.75a2,2,0,0,1-2-2V8.25a2,2,0,0,1,4,0v10.5A2,2,0,0,1,30,20.75Z" fill="#fff"/>
    <path d="M39,20.75a2,2,0,0,1-2-2V8.25a2,2,0,0,1,4,0v10.5A2,2,0,0,1,39,20.75Z" fill="#fff"/>
  </g>
  <path d="M30.35,39.27a4,4,0,0,1-2.82-1.17l-6.65-6.64a2,2,0,0,1,2.83-2.83l6.65,6.65L47.2,18.42A2,2,0,0,1,50,21.25L33.18,38.1A4,4,0,0,1,30.35,39.27Z" fill="#fff"/>
</svg>
