<?xml version="1.0" encoding="utf-8"?>
<!-- Generator: Adobe Illustrator 24.1.2, SVG Export Plug-In . SVG Version: 6.00 Build 0)  -->
<svg version="1.1" id="Lager_1" xmlns="http://www.w3.org/2000/svg" xmlns:xlink="http://www.w3.org/1999/xlink" x="0px" y="0px"
	 width="1000px" height="1000px" viewBox="0 0 1000 1000" style="enable-background:new 0 0 1000 1000;" xml:space="preserve">
<style type="text/css">
	.st0{fill:#FFFFFF;}
</style>
<path class="st0" d="M952.7,477.7c-3.2,78.7-26.8,146.8-70.8,204.3s-109.7,86.1-197,86.1c-29,0-54.1-8.1-75.2-24.4
	c-21.1-16.3-36-39.3-44.6-69c-14.7,30.4-33.2,53.2-55.5,68.5C487.2,758.4,461,766,431,766c-53.4,0-94.2-21.2-122.4-63.6
	s-38.6-98.7-31.1-168.8c9.3-89.8,35.5-161.7,78.6-215.8c43.1-54,95.5-81.1,157-81.1c43.3,0,78.1,4.7,104.4,14
	c26.3,9.3,55.2,23.6,86.7,43l-1.6,2.1h2.7l-27.4,303.8c-1.8,31.1,0.3,52.5,6.2,64.2c5.9,11.6,13.9,17.4,23.9,17.4
	c40.1,0,72.2-19.2,96.4-57.7c24.1-38.5,37.6-87,40.5-145.7c5.7-121.3-18-215.9-71.4-283.7c-53.4-67.9-135.7-101.8-247-101.8
	c-108.1,0-194,36.5-257.7,109.5s-98.2,172.5-103.6,298.5C159.2,623,185,720,242.8,791.2S383.5,898,491.6,898c30,0,61.3-3.3,93.7-9.9
	c32.4-6.6,60.4-15,84-25l20.4,89.1c-24,15-54.5,26.7-91.5,35.2c-37.1,8.4-73.3,12.6-108.7,12.6c-144.6,0-255.9-44.5-333.9-133.6
	S41.6,655.3,47.7,500.3C54.1,346.8,100.3,225,186.2,135S386.2,0,528.6,0c139.9,0,247,42.6,321.3,127.8
	C924.2,212.9,958.4,329.6,952.7,477.7L952.7,477.7z M410.5,533.6c-3.2,42.9-0.1,75.4,9.4,97.4s25,33,46.4,33
	c19.3,0,36.6-5.4,51.8-16.1c15.2-10.7,28.5-30.6,40-59.6l21.5-242.6c-7.9-1.8-15.6-3.3-23.1-4.6c-7.5-1.3-15-1.9-22.5-1.9
	c-37.2,0-65.6,16.2-85.1,48.6S416.6,468.8,410.5,533.6L410.5,533.6z"/>
</svg>
