<svg id="Lager_1" data-name="Lager 1" xmlns="http://www.w3.org/2000/svg" width="371" height="276" viewBox="0 0 371 276">
  <path d="M150.18,247.18a5.59,5.59,0,0,0-1.41-.15h0a48,48,0,0,1-9.84-2.23,49.77,49.77,0,0,1-4.69-1.87c-1.53-.72-3-1.47-4.5-2.32h.41l-8.59,9.1a.53.53,0,0,1-.68.08h0a68,68,0,0,1-17.13-15.93,1.23,1.23,0,0,1,.22-1.73h0a1.2,1.2,0,0,1,.75-.26h.66v2.5h-.65v-2.5h0l-.9.38,8.49-9.21-.23,2a50.53,50.53,0,0,1-7.37-19.54v-.28a3.89,3.89,0,0,0-.85-2.38,3.68,3.68,0,0,0-2-1.29,5.58,5.58,0,0,0-.59-.09h-2.8l-4,.08H88.62a3.36,3.36,0,0,0-3.09,2.86V205a3.7,3.7,0,0,0,.07.57v.19a80.36,80.36,0,0,0,2.14,11.81,75.6,75.6,0,0,0,4.06,11.29,68.49,68.49,0,0,0,5.86,10.52,70.78,70.78,0,0,0,50.39,31.24h0a5.65,5.65,0,0,0,6-2.9,5.28,5.28,0,0,0,.57-1.72,13,13,0,0,0,.11-1.87V252.53A5.89,5.89,0,0,0,150.18,247.18Zm.07-.29a6.22,6.22,0,0,1,4.76,5.64v11.58a7.32,7.32,0,0,1-.66,3.83,6.27,6.27,0,0,1-6.62,3.33h0A72.55,72.55,0,0,1,82.42,206h0a6.25,6.25,0,0,1-.11-1.06,9.35,9.35,0,0,1,.11-1.05,6.15,6.15,0,0,1,.68-2,6.38,6.38,0,0,1,3.08-2.79,6.08,6.08,0,0,1,2.06-.48h12.12a7.22,7.22,0,0,1,2.07.21,6.37,6.37,0,0,1,4.71,6.26h0A48.16,48.16,0,0,0,113.68,224a.24.24,0,0,1,0,.28l-8.78,8.93a.18.18,0,0,1-.15.07h0a.22.22,0,0,1,0-.44h.65v.44h-.62l.18-.35a66.66,66.66,0,0,0,16.35,16.18h-.24l8.76-8.93a.15.15,0,0,1,.21,0,48,48,0,0,0,18.81,6.55h0A5.52,5.52,0,0,1,150.25,246.89Z" style="fill: #fff"/>
  <g>
    <path d="M218,161.87a1.85,1.85,0,0,0-1.49-1.8c-.84-.07-1.82,0-2.72,0h-5.5c-3.68,0-7.35.13-11,.19-7.34.19-14.69.52-22,.77l-22,.81-11,.24H140a.55.55,0,0,0,.35-.2.64.64,0,0,0,.14-.34v5.51l-1.46-2.4c3.36,1.64,6.66,3.4,10,5.1l5,2.58,5,2.67,4.94,2.65,4.9,2.74,9.81,5.48h-1.44l20.53-9.12c3.43-1.49,6.8-3.11,10.2-4.67s6.76-3.21,10.13-4.83l-.11.17Zm.3,0v5.64h-.09l-40.2,20h-.2l-40.08-20.2-.16-.08v-5.69a2.32,2.32,0,0,1,1.81-2.27,8.65,8.65,0,0,1,1.44,0h1.37l11,.06,22,.14,22,.14,11,.07h5.5c.94,0,1.81,0,2.79.06a2.18,2.18,0,0,1,1.85,2.14Z" style="fill: #fff"/>
    <path d="M216.63,177.3,203,184.15c-4.53,2.29-9,4.66-13.56,7-2.26,1.16-4.49,2.38-6.74,3.57l-3.37,1.8-.42.22-.25.13a2,2,0,0,1-.41.13,2,2,0,0,1-.85,0,2.74,2.74,0,0,1-.4-.15l-.22-.1-1.73-.81-13.82-6.46L147.39,183l-6.91-3.23-1.73-.8-.22-.1h-.09a1.25,1.25,0,0,0,.51.1,1.14,1.14,0,0,0,.9-.44,1.3,1.3,0,0,0,.23-.49V181c.06,5.09.17,10.17.18,15.26v16.44h0v.06a.35.35,0,0,0,.12.21.48.48,0,0,0,.22.12h1.62l7.63.09,15.25.33,30.51,1.06,15.25.54,3.81.13a2.33,2.33,0,0,0,2.31-1.41,2.12,2.12,0,0,0,.18-.71v-.92l.07-1.91.1-3.81c.11-5.08.26-10.17.33-15.25l.08-7.63v-3.81c0-.62,0-1.32,0-1.87A.93.93,0,0,0,216.63,177.3Zm-.14-.27a1.22,1.22,0,0,1,1.64.57.92.92,0,0,1,.09.23c0,.65,0,1.29,0,1.94v11.44l-.05,15.25v5.72a5,5,0,0,1-.21,1.95,3.28,3.28,0,0,1-3.16,2.12H211l-15.26-.05-30.51-.1-15.29-.1h-9.57a3.4,3.4,0,0,1-2.92-2.61,10.27,10.27,0,0,1-.08-2l.18-30.51V178a1.6,1.6,0,0,1,.27-1.06,1.3,1.3,0,0,1,1.58-.43l.45.22,1.7.86,6.8,3.45L162,188l13.61,6.9,1.7.86a1.09,1.09,0,0,0,.78.19,5.87,5.87,0,0,0,.81-.36l3.42-1.69,6.85-3.37Z" style="fill: #fff"/>
  </g>
  <path d="M91.09,194a63.61,63.61,0,0,1,3-18,65.94,65.94,0,0,1,8.56-16.38l2.87-3.67c1-1.21,2.13-2.27,3.19-3.41.55-.55,1.05-1.15,1.64-1.66l1.77-1.53a41.3,41.3,0,0,1,3.61-3c1.26-.92,2.55-1.81,3.83-2.7l4.07-2.34,1-.58c.35-.18.71-.33,1.06-.5l2.13-1,2.14-1c.72-.32,1.47-.54,2.2-.81a62.87,62.87,0,0,1,18.34-3.67c1.56,0,3.12-.11,4.67-.1a43,43,0,0,1,4.67.29c1.55.18,3.09.36,4.63.6.77.12,1.53.31,2.29.46s1.52.32,2.27.53a59.38,59.38,0,0,1,30.88,19h0a.17.17,0,0,1,0,.21.13.13,0,0,1-.2,0h0a63.74,63.74,0,0,0-31.18-16.91,60.29,60.29,0,0,0-8.88-1.27c-1.49-.15-3-.15-4.48-.19s-3,.14-4.48.2a61.31,61.31,0,0,0-17.5,3.67c-.7.26-1.42.45-2.11.75l-2,.92-2,.92a10.2,10.2,0,0,0-1,.47l-1,.55-3.91,2.2-3.69,2.54A65.63,65.63,0,0,0,104.59,161a69.26,69.26,0,0,0-8.94,15.52A70.68,70.68,0,0,0,91.39,194a.15.15,0,0,1-.16.14h0a.16.16,0,0,1-.13-.15Z" style="fill: #fff"/>
  <path d="M214.67,223.17a46,46,0,0,1-7,16.73c-.88,1.26-1.76,2.52-2.71,3.73s-2,2.35-3,3.5a44,44,0,0,1-3.33,3.21c-1.13,1-2.35,2-3.56,3a39.18,39.18,0,0,1-3.83,2.61,45.65,45.65,0,0,1-4,2.32c-1.37.7-2.78,1.34-4.2,1.94s-2.86,1.13-4.33,1.59a46.56,46.56,0,0,1-18,2.18h0a.15.15,0,0,1-.13-.16.15.15,0,0,1,.13-.14,64.72,64.72,0,0,0,53.8-40.59.15.15,0,0,1,.2-.08h0a.15.15,0,0,1,.09.16Z" style="fill: #fff"/>
</svg>
