<svg id="Lager_1" data-name="Lager 1" xmlns="http://www.w3.org/2000/svg" viewBox="0 0 98.31 73.5">
  <path d="M292.93,355.9h-40.2c-2.7,0-4.9-1.7-4.9-4.3v-1.2a6.55,6.55,0,0,1,4.1-5.9l9.9-4a1.64,1.64,0,0,1,1.1,3.1l-9.9,4a3.46,3.46,0,0,0-2,2.8v1.2c0,.9.7,1.1,1.6,1.1h40.2c.9,0,1.6-.2,1.6-1.1v-1.2a3.16,3.16,0,0,0-2-2.8l-11-4a1.64,1.64,0,1,1,1.1-3.1l11,4a6.55,6.55,0,0,1,4.1,5.9v1.2C297.83,354.3,295.63,355.9,292.93,355.9Zm-20.6-14.7c-8,0-14.6-8-14.6-18s6.5-18,14.6-18,14.6,8,14.6,18S280.43,341.2,272.33,341.2Zm0-32.6c-6.2,0-11.3,6.6-11.3,14.7s5.1,14.7,11.3,14.7,11.3-6.6,11.3-14.7S278.63,308.6,272.33,308.6Z" transform="translate(-247.83 -282.4)" style="fill: #fff"/>
  <path d="M345.94,311.2a8.26,8.26,0,0,1-.7,1.3,5.48,5.48,0,0,1-4.4,2.5h-18.5c-.7,1.1-2.5,3.8-7.3,11.2a3.93,3.93,0,0,1-3.4,1.8,3.59,3.59,0,0,1-1.1-.2c-1.7-.5-3.3-2.1-3.3-3.8v-9.1H306a7.67,7.67,0,0,1-1.8-.1,5.55,5.55,0,0,1-4.5-4.3,4.58,4.58,0,0,1-.1-1.6V286.8l.2-.5v-.1a5.24,5.24,0,0,1,3.9-3.7h.2l.4-.1h37.2l.4.1h.1a5,5,0,0,1,3.8,3.3,2.54,2.54,0,0,1,.2.7l.1.4v23.8ZM343,287.3c0-.1-.1-.2-.1-.3a2.22,2.22,0,0,0-1.7-1.4h-36.5c-.1,0-.2,0-.2.1a2,2,0,0,0-1.6,1.7c0,.1,0,.1-.1.2v20.2c0,.1.1,2.3.1,2.3a2.25,2.25,0,0,0,1.8,1.7h4.1a1.71,1.71,0,0,1,1.6,1.2v11a.73.73,0,0,0,.6.7h.6a.75.75,0,0,0,.7-.4c2.5-3.8,7.4-11.1,7.6-11.7a1.68,1.68,0,0,1,1.6-1h19.4a1.9,1.9,0,0,0,1.8-1,1.14,1.14,0,0,0,.3-.8h0Zm-9.1,13.7a3.2,3.2,0,1,1,3.3-3.2A3.24,3.24,0,0,1,333.94,301ZM323,301a3.2,3.2,0,1,1,3.3-3.2A3.24,3.24,0,0,1,323,301Zm-10.9,0a3.2,3.2,0,1,1,3.3-3.2A3.24,3.24,0,0,1,312.14,301Z" transform="translate(-247.83 -282.4)" style="fill: #fff"/>
</svg>
