<svg id="Lager_1" data-name="Lager 1" xmlns="http://www.w3.org/2000/svg" width="287.51" height="458.72" viewBox="0 0 287.51 458.72">
  <g>
    <path d="M444.38,535.44c-.09-1-.21-1.9-.34-2.84l-.39-2.72-.81-5.46a112.51,112.51,0,0,0-2.31-11,104,104,0,0,0-3.44-10.74c-1.31-3.5-2.9-7-4.42-10.26l-4.57-10q-2.34-5.06-4.94-10a210.28,210.28,0,0,0-11.55-19c-4.14-6.14-8.78-12-13.3-17.65-2.27-2.84-4.45-5.76-6.67-8.63s-4.23-5.75-6.18-8.75A173.77,173.77,0,0,1,375,399.7c-.35-.76-.66-1.52-.94-2.33l-.93-2.57-1.86-5.15-3.73-10.3-1.89-5.14c-.62-1.68-1.28-3.51-2.07-5.23-.39-.86-.8-1.72-1.24-2.56L361.06,364l-2.53-4.86-5.15-9.7a34.15,34.15,0,0,0-3.16-4.7l-3.39-4.31a33.38,33.38,0,0,0-8-7.73,32,32,0,0,0-10.05-4.46,31.48,31.48,0,0,1,9.42,5.31,32.4,32.4,0,0,1,7.06,8l3.06,4.55a31.24,31.24,0,0,1,2.65,4.56l4.47,10,2.27,5,1.13,2.48c.37.8.7,1.61,1,2.43.65,1.64,1.15,3.28,1.7,5l1.62,5.23,3.3,10.45,1.66,5.22.83,2.6c.29.93.63,1.87,1,2.79.19.45.39.91.6,1.36l.57,1.24,1.16,2.49c.78,1.68,1.6,3.36,2.45,5,1.71,3.31,3.56,6.55,5.52,9.72s4.05,6.26,6.25,9.27,4.3,5.94,6.53,8.85,4.52,5.81,6.65,8.66,4.24,5.8,6.24,8.78a214.07,214.07,0,0,1,11,18.48q2.55,4.74,4.84,9.61l4.64,9.91c1.58,3.34,3,6.49,4.32,9.81s2.38,6.66,3.36,10.07,1.78,6.86,2.42,10.34l.91,5.36.45,2.69c.14.86.26,1.72.37,2.58a63.78,63.78,0,0,1,.41,10.43c-.07,1.74-.2,3.49-.42,5.22-.1.87-.23,1.72-.37,2.61l-.43,2.7-.22,1.35-.22,1.28c-.16.85-.34,1.7-.54,2.54a51,51,0,0,1-1.49,5l-3.67,10.33-3.62,10.34-1.8,5.18-1.68,5.22a204.7,204.7,0,0,0-5.86,21.24c-.76,3.59-1.43,7.19-2,10.82s-.92,7.26-1.33,10.89c1.48-7.16,3.1-14.27,5.18-21.24,1.05-3.48,2.14-6.94,3.35-10.36s2.53-6.79,3.85-10.19l2-5.1,2.06-5.07,4.15-10.13,4.1-10.15a54.35,54.35,0,0,0,1.84-5.44c.26-.92.5-1.85.71-2.79l.3-1.4.27-1.35.53-2.68c.18-.91.36-1.86.5-2.8.3-1.88.53-3.77.67-5.67A67.24,67.24,0,0,0,444.38,535.44Z" transform="translate(-157.2 -182.53)" style="fill: #fff"/>
    <path d="M312.82,350.33c-.29-1.92-.57-3.85-.77-5.8a15.24,15.24,0,0,1-.09-2.78,13.18,13.18,0,0,1,.17-1.39,4.08,4.08,0,0,1,.41-1.25l0,0c.47-1.16.95-2.33,1.4-3.51-.78,1-1.52,2-2.26,3l0,0a5.42,5.42,0,0,0-.87,1.42c-.2.47-.38,1-.54,1.47a13.35,13.35,0,0,0-.54,3.11c-.18,2-.3,4-.3,6a71.31,71.31,0,0,0,1,12.09,70.43,70.43,0,0,0,3,11.84c.68,1.93,1.47,3.83,2.32,5.7.42.92.9,1.88,1.34,2.74l1.36,2.66q2.79,5.33,6.05,10.39,1.64,2.53,3.38,5l1.73,2.38,1.66,2.37A150.89,150.89,0,0,1,342.94,426c.19,1.63.4,3.27.65,4.91.25-1.71.48-3.41.67-5.11a.17.17,0,0,0,0-.07l0-.15a82.7,82.7,0,0,0-8.64-22.43c-.49-.89-1-1.75-1.53-2.62L332.49,398c-1-1.64-2-3.31-3-5q-3-5-5.66-10.16a107.26,107.26,0,0,1-5-10.33,94.49,94.49,0,0,1-3.61-10.85A109.71,109.71,0,0,1,312.82,350.33Z" transform="translate(-157.2 -182.53)" style="fill: #fff"/>
    <path d="M403.54,551.5a105.54,105.54,0,0,0-5.62-11.2A108.34,108.34,0,0,0,391,529.82l-.08-.1-.06-.06-13-14-13.06-13.93-6.54-7L355,491.29l-1.64-1.73-1.73-1.65L337.8,474.76l-6.9-6.56c-2.24-2.16-4.43-4.35-6.54-6.63a146.33,146.33,0,0,1-11.76-14.43c-1.82-2.53-3.48-5.08-5.22-7.78s-3.46-5.33-5.22-8l-10.48-15.92-1.31-2c-.45-.68-.79-1.23-1.17-1.87a33.75,33.75,0,0,1-1.93-3.85,32.68,32.68,0,0,1-1.39-4.08c-.18-.7-.35-1.39-.49-2.1l-.46-2.31-.46-2.34c-.14-.72-.26-1.43-.36-2.15a37.45,37.45,0,0,1-.32-4.36,36.62,36.62,0,0,1,1-8.73l2-9.31,1-4.63c.33-1.47.72-2.92,1.17-4.36s1-2.83,1.55-4.28l1.78-4.42,3.55-8.84,3.53-8.77a43.73,43.73,0,0,1,4.48-7.91l5.41-7.85a28.38,28.38,0,0,0,4.25-9.1l1.14-4.66c.38-1.57.72-3.18,1-4.79a48.48,48.48,0,0,0,.49-9.7,85.13,85.13,0,0,0-1.17-9.54l-1.48-9.42.58,9.52c.17,3.19.52,6.34.38,9.45a51.22,51.22,0,0,1-1.17,9.26c-.33,1.52-.74,3-1.21,4.49l-1.43,4.52a26.24,26.24,0,0,1-4.27,7.84l-5.81,7.56a48.28,48.28,0,0,0-5.32,8.39c-.75,1.53-1.37,2.95-2,4.4l-1.94,4.36-3.88,8.7L285.43,357c-.67,1.47-1.32,3.05-1.87,4.61s-1.05,3.18-1.48,4.79L281,371l-2.25,9.26a42.61,42.61,0,0,0-1.07,15.29c.09.85.23,1.71.37,2.55l.4,2.35.42,2.37c.15.86.35,1.7.57,2.55a37.67,37.67,0,0,0,1.65,4.94,39,39,0,0,0,2.29,4.68c.43.74.93,1.53,1.35,2.18l1.29,2,10.37,16c1.72,2.66,3.45,5.33,5.2,8s3.55,5.39,5.46,8a152.41,152.41,0,0,0,12.42,15c2.23,2.36,4.52,4.67,6.91,6.87l7.05,6.41,14.09,12.77,1.75,1.6,1.68,1.69,3.38,3.35,6.76,6.69,13.55,13.38,13.58,13.26c2.56,3.14,5,6.3,7.24,9.66a109.11,109.11,0,0,1,6.2,10.55,107.48,107.48,0,0,1,5.05,11.21,111.26,111.26,0,0,1,3.82,11.76,105.64,105.64,0,0,0-2.72-12.13A108.28,108.28,0,0,0,403.54,551.5Z" transform="translate(-157.2 -182.53)" style="fill: #fff"/>
    <path d="M328.72,564.58c-1.79-3.47-3.64-6.91-5.59-10.3s-3.93-6.76-6-10.09-4.16-6.63-6.35-9.87c-4.34-6.51-9-12.83-13.61-19.06-9.34-12.42-18.52-25-27.93-37.33l-7-9.3L258.73,464,257,461.65a24.1,24.1,0,0,1-1.42-2.09,20.28,20.28,0,0,1-2-4.53,19.89,19.89,0,0,1-.6-2.42c-.09-.43-.13-.78-.2-1.27l-.2-1.45L251,438.55c0-5.71,0-11.42-.09-17.13l-.19-17.33c0-2.52.34-5.53.58-8.39l.71-8.65,1.36-17.32.35-4.29c.12-1.38.29-2.76.51-4.13a54.22,54.22,0,0,1,2-8.12c.42-1.33.9-2.65,1.43-3.94l.83-2c.27-.65.57-1.28.87-1.91a58.17,58.17,0,0,1,4.18-7.34q9.54-14.52,18.83-29.22C275.09,317.89,268,327.08,261,336.3a55.28,55.28,0,0,0-4.92,7.43q-.54,1-1.05,2l-1,2c-.64,1.35-1.23,2.73-1.77,4.13-.3.78-.58,1.58-.85,2.38l-.62-1.78c-.45-1.3-1-2.58-1.32-3.87a29.52,29.52,0,0,1-1.17-7.95,28.59,28.59,0,0,1,1-7.88,76,76,0,0,1,2.5-7.7q1.45-3.78,3.27-7.38c1.21-2.4,2.62-4.73,3.89-7.22s2.22-5.14,3.25-7.69l3-7.63c.48-1.3,1-2.51,1.45-3.88l.67-2.05c.23-.69.37-1.33.56-2l1-4c.35-1.34.72-2.6,1-4a31,31,0,0,0,.61-4.23l.37-4.09.36-4.09c.12-1.4.18-2.79.19-4.19a54.31,54.31,0,0,0-2.25-16.51,29,29,0,0,0-3.78-7.45c-1.65-2.26-3.47-4.27-5.22-6.39l2.29,3.42c.76,1.14,1.56,2.25,2.23,3.42a28.94,28.94,0,0,1,3.07,7.42,45.8,45.8,0,0,1,1.22,8,61.93,61.93,0,0,1,.11,8.06c-.07,1.34-.19,2.67-.35,4l-.48,4.08-.47,4.08a28.82,28.82,0,0,1-.66,3.88l-2.16,7.87c-.19.64-.35,1.34-.56,1.95l-.62,1.85c-.41,1.23-1,2.53-1.47,3.79l-3,7.66c-1,2.54-2,5.18-3.05,7.47s-2.53,4.82-3.72,7.35a70.7,70.7,0,0,0-3.12,7.74,72.41,72.41,0,0,0-2.2,8,28.91,28.91,0,0,0,1.28,16.55c.81,2,1.72,3.85,2.62,5.73a57.18,57.18,0,0,0-1.62,5.9c-.32,1.47-.6,2.95-.8,4.44l-.53,4.35-2.06,17.25-1,8.62c-.31,2.9-.7,5.64-.83,8.91q-.13,8.69-.23,17.32l-12.6-29.14-8.63-19.76c-2.74-6.34-5.59-12.64-8.39-18.95l.93-4.08c.39-1.67.74-3.34,1.26-5l2.85-9.94c1.86-6.63,3.88-13.22,5.37-20s3.2-13.44,4.73-20.18,3.08-13.47,4.53-20.22c-2.17,6.56-4.25,13.14-6.32,19.72l-.65,2.09c-.47-4.68-1.05-9.34-1.7-14l-.33-2.45-.42-2.43-.84-4.88c-.57-3.27-1.31-6.54-2.2-9.75a83.27,83.27,0,0,0-7.61-18.49,65.84,65.84,0,0,0-5.62-8.28c-2.12-2.57-4.27-5-6.5-7.49,1.7,2.83,3.56,5.58,5.31,8.34A92.32,92.32,0,0,1,212.2,245,87.84,87.84,0,0,1,216,254c1.12,3.05,2.15,6.13,3,9.27s1.65,6.27,2.3,9.47,1.42,6.42,2.08,9.64c1.06,5.11,2.19,10.21,3.47,15.28-1.66,5.32-3.29,10.65-4.94,16-1.06,3.29-1.92,6.62-3.11,9.87l-3.35,9.81-3.32,9.82c-.59,1.62-1,3.31-1.47,5l-1.36,5a2.6,2.6,0,0,0,.1,1.6l0,.09c2.69,6.67,5.33,13.36,8.08,20l8.18,20q1.19,2.91,2.39,5.82L224,394.41c-4.09-6.12-8.17-12.26-12.16-18.43-2-3.08-4-6.18-5.84-9.27l-1.37-2.3-.52-1-.27-.52-.34-.76c-.89-1.86-1.82-3.45-2.76-5.08s-1.91-3.22-2.88-4.8l-.72-1.16-.11-.49c-.17-.87-.35-1.74-.49-2.61a66,66,0,0,1-.9-10.6c0-3.59.12-7.35.18-11l.11-5.53.2-5.52.16-5.53c.06-1.86.06-3.76,0-5.63s-.23-3.77-.41-5.59l-.54-5.51c-.73-7.35-1.48-14.69-2.32-22,.05,7.38.2,14.77.36,22.15,0,3.69.27,7.4.17,11-.06,1.81-.17,3.61-.35,5.42l-.53,5.52-.49,5.52-.4,5.53c-.25,3.7-.54,7.32-.76,11.1a64.6,64.6,0,0,0,.49,11.46c.12.95.28,1.9.43,2.85l.13.7,0,.18v.13c-.28-.71.39,1,.33.86l.17.29.67,1.19c.9,1.59,1.79,3.19,2.64,4.8s1.7,3.23,2.35,4.73l.2.5.34.73.69,1.48,1.38,2.51c1.87,3.27,3.8,6.42,5.73,9.59q5.83,9.45,11.8,18.78,12,18.62,24.32,37a3.47,3.47,0,0,0,1.5,1.24c0,.82,0,1.63,0,2.44a3,3,0,0,0,0,.42v0l1.45,11.56.19,1.45c.06.47.14,1.08.24,1.61a28.22,28.22,0,0,0,.77,3.24,27.08,27.08,0,0,0,2.69,6.08,30.94,30.94,0,0,0,1.87,2.72l1.78,2.31,3.54,4.62,7.1,9.25c9.42,12.36,19.05,24.57,28.65,36.79l7.25,9.11c2.37,3,4.71,6.1,7,9.22,4.55,6.24,9,12.55,13.19,19.06s8.27,13.08,12.09,19.83l5.76,10.13,5.83,10.11c-3.15-7.12-6.37-14.18-9.66-21.25Q331.41,569.78,328.72,564.58Z" transform="translate(-157.2 -182.53)" style="fill: #fff"/>
    <path d="M185.6,302.43c-.67-2.17-1.4-4.33-2.1-6.49s-1.55-4.28-2.36-6.4-1.67-4.24-2.64-6.31A91.75,91.75,0,0,0,172.15,271l-.28.09,8.8,25.84,9.07,25.74.29-.1a94.7,94.7,0,0,0-2.6-13.54C186.91,306.79,186.21,304.63,185.6,302.43Z" transform="translate(-157.2 -182.53)" style="fill: #fff"/>
    <path d="M289.14,306.61h3.11a4.46,4.46,0,0,0,2.45-.74l2.21-1.46a4.37,4.37,0,0,0,1.35-1.39l4.06-6.63a3.81,3.81,0,0,0,.29-.57L311,276.26a4.36,4.36,0,0,0,.29-.93l2-5.87a.83.83,0,0,0,0-.15,28.05,28.05,0,0,0-.15-4.49l-.62-2.62c-.49-2-1.52-2.6-2.31-2.73-1.29-.23-2.73.7-3.87,2.46l-10.17,12.91a2.26,2.26,0,0,0-.16.26L289.46,287a3.77,3.77,0,0,0-.34.8l-4.21,13a4.45,4.45,0,0,0,4.23,5.82Z" transform="translate(-157.2 -182.53)" style="fill: #fff"/>
    <path d="M240.34,267.79a5,5,0,0,0,6-.37,22.57,22.57,0,0,0,7.13-11.67l3-12.2a4.21,4.21,0,0,0,.12-.71L258,229.59a25,25,0,0,0-.09-5.6l-.79-6c-.27-2-.67-5.1-2.66-5.55-1.47-.34-3,.88-5.09,4a5,5,0,0,0-.27.57l-2.88,7.31-4.06,10.79c-.11.3-1.12,4.32-1.16,4.67l-1,10.67L238.2,263A5,5,0,0,0,240.34,267.79Z" transform="translate(-157.2 -182.53)" style="fill: #fff"/>
    <path d="M191.75,264.7a5.9,5.9,0,0,0,5.22,3.14,5.51,5.51,0,0,0,1.14-.11,6,6,0,0,0,4.46-3.8l1.51-4.18c.52-1.45.52-4.29,0-8.91l-.94-11.75c0-.11,0-.21,0-.24l-1.61-11a19.67,19.67,0,0,0-2.41-7c-.5-.87-.95-1.65-1.13-1.95l-.18-.28-3.11-4.35a2.92,2.92,0,0,0-5.38,1.59v42.69a5.92,5.92,0,0,0,.7,2.79Zm-1.49-48.84h0v42.69h0Z" transform="translate(-157.2 -182.53)" style="fill: #fff"/>
    <path d="M174.29,268.51a3.76,3.76,0,0,0,3.22-1.8l3-4.93A3.75,3.75,0,0,0,181,259l-2-8.48-.52-2a32.4,32.4,0,0,0-3.58-8.67l-4.78-8-3.93-7.16a3.85,3.85,0,0,0-1.41-1.45L162.86,222a3.76,3.76,0,0,0-5.57,4.07l4,18.18a3.6,3.6,0,0,0,.12.44l7.26,20.69a3.74,3.74,0,0,0,2.54,2.38l2.08.58A3.52,3.52,0,0,0,174.29,268.51Z" transform="translate(-157.2 -182.53)" style="fill: #fff"/>
    <path d="M314.35,430.87l-.15.58,8.35,2.22,8.36,2.12L347.64,440l16.78,4,8.39,2,8.41,1.93.15-.58a81.64,81.64,0,0,0-15.8-8,137,137,0,0,0-33.5-8.32A81.12,81.12,0,0,0,314.35,430.87Z" transform="translate(-157.2 -182.53)" style="fill: #fff"/>
  </g>
  <path d="M190,206c-10.44.58-10.87,1.22-11.27,16.51a0,0,0,0,1,0,0c-.4-15.29-.83-15.93-11.27-16.51,0,0,0,0,0,0,10.44-.59,10.87-1.22,11.27-16.51,0,0,0,0,0,0,.4,15.29.83,15.92,11.27,16.51C190,206,190,206,190,206Z" transform="translate(-157.2 -182.53)" style="fill: #fff"/>
  <path d="M279.14,201.54c-12,.67-12.47,1.39-12.93,18.94,0,0,0,0,0,0-.46-17.55-1-18.27-12.94-18.94,0,0,0,0,0,0,12-.67,12.48-1.39,12.94-18.94,0,0,0,0,0,0,.46,17.55,1,18.27,12.93,18.94C279.16,201.49,279.16,201.54,279.14,201.54Z" transform="translate(-157.2 -182.53)" style="fill: #fff"/>
  <path d="M297.63,258.56c-8.19.46-8.53,1-8.84,12.95,0,0,0,0,0,0-.32-12-.66-12.49-8.84-12.95a0,0,0,1,1,0,0c8.18-.46,8.52-.95,8.84-12.95,0,0,0,0,0,0,.31,12,.65,12.49,8.84,12.95C297.64,258.53,297.64,258.56,297.63,258.56Z" transform="translate(-157.2 -182.53)" style="fill: #fff"/>
</svg>
