<svg id="Lager_1" data-name="Lager 1" xmlns="http://www.w3.org/2000/svg" width="287.51" height="458.72" viewBox="0 0 287.51 458.72">
  <g>
    <path d="M157.54,535.44c.1-1,.21-1.9.35-2.84l.39-2.72.8-5.46q.88-5.56,2.31-11a106.46,106.46,0,0,1,3.44-10.74c1.32-3.5,2.91-7,4.42-10.26l4.58-10q2.32-5.06,4.93-10a215,215,0,0,1,11.55-19c4.14-6.14,8.79-12,13.3-17.65,2.27-2.84,4.45-5.76,6.67-8.63s4.24-5.75,6.19-8.75a173.69,173.69,0,0,0,10.46-18.7c.35-.76.66-1.52.95-2.33l.93-2.57,1.85-5.15,3.74-10.3,1.89-5.14c.61-1.68,1.28-3.51,2.07-5.23.39-.86.8-1.72,1.23-2.56l1.27-2.43,2.54-4.86,5.14-9.7a33.33,33.33,0,0,1,3.17-4.7l3.38-4.31a33.56,33.56,0,0,1,8-7.73,32,32,0,0,1,10.05-4.46,31.48,31.48,0,0,0-9.42,5.31,32.4,32.4,0,0,0-7.06,8l-3.05,4.55a31.24,31.24,0,0,0-2.65,4.56l-4.48,10-2.26,5-1.14,2.48q-.54,1.2-1,2.43c-.65,1.64-1.15,3.28-1.7,5l-1.62,5.23-3.29,10.45-1.67,5.22-.83,2.6c-.29.93-.63,1.87-1,2.79-.19.45-.39.91-.6,1.36l-.57,1.24L229.62,407c-.79,1.68-1.61,3.36-2.45,5q-2.56,5-5.53,9.72c-2,3.16-4,6.26-6.25,9.27s-4.3,5.94-6.52,8.85-4.53,5.81-6.66,8.66-4.24,5.8-6.23,8.78a209.11,209.11,0,0,0-11,18.48q-2.56,4.74-4.85,9.61l-4.64,9.91c-1.58,3.34-3,6.49-4.31,9.81s-2.39,6.66-3.37,10.07S166,522,165.35,525.48l-.91,5.36-.45,2.69c-.14.86-.26,1.72-.37,2.58a66.09,66.09,0,0,0-.41,10.43c.07,1.74.21,3.49.42,5.22.11.87.23,1.72.37,2.61l.43,2.7.22,1.35.22,1.28c.16.85.34,1.7.55,2.54a48.38,48.38,0,0,0,1.48,5l3.67,10.33,3.62,10.34,1.8,5.18,1.69,5.22a207.17,207.17,0,0,1,5.85,21.24c.76,3.59,1.43,7.19,2,10.82s.92,7.26,1.34,10.89c-1.48-7.16-3.11-14.27-5.19-21.24-1-3.48-2.14-6.94-3.34-10.36s-2.53-6.79-3.86-10.19l-2-5.1-2.06-5.07-4.15-10.13L162.2,569a54.41,54.41,0,0,1-1.85-5.44c-.26-.92-.49-1.85-.71-2.79l-.29-1.4-.27-1.35-.54-2.68c-.17-.91-.35-1.86-.5-2.8q-.45-2.82-.67-5.67A67.24,67.24,0,0,1,157.54,535.44Z" transform="translate(-157.2 -182.53)" style="fill: #fff"/>
    <path d="M289.1,350.33c.29-1.92.57-3.85.77-5.8a15.24,15.24,0,0,0,.09-2.78,13.15,13.15,0,0,0-.16-1.39,4.37,4.37,0,0,0-.41-1.25l0,0c-.47-1.16-.95-2.33-1.39-3.51.77,1,1.51,2,2.26,3l0,0a5.67,5.67,0,0,1,.86,1.42,12.28,12.28,0,0,1,.54,1.47,13.36,13.36,0,0,1,.55,3.11c.17,2,.29,4,.29,6a72.9,72.9,0,0,1-4,23.93c-.69,1.93-1.47,3.83-2.32,5.7-.42.92-.91,1.88-1.35,2.74l-1.35,2.66q-2.81,5.33-6.06,10.39c-1.09,1.69-2.22,3.35-3.37,5l-1.74,2.38-1.65,2.37A149.87,149.87,0,0,0,259,426c-.18,1.63-.4,3.27-.64,4.91-.26-1.71-.49-3.41-.67-5.11a.09.09,0,0,1,0-.07l0-.15a82.72,82.72,0,0,1,8.65-22.43c.48-.89,1-1.75,1.53-2.62l1.56-2.53c1-1.64,2-3.31,3-5q3-5,5.66-10.16a105,105,0,0,0,5-10.33,92.59,92.59,0,0,0,3.61-10.85A107.14,107.14,0,0,0,289.1,350.33Z" transform="translate(-157.2 -182.53)" style="fill: #fff"/>
    <path d="M198.38,551.5a107.16,107.16,0,0,1,12.54-21.68.86.86,0,0,1,.07-.1l.06-.06,13-14,13-13.93,6.54-7,3.27-3.47,1.65-1.73,1.73-1.65,13.86-13.15L271,468.2c2.23-2.16,4.43-4.35,6.54-6.63a147.78,147.78,0,0,0,11.76-14.43c1.81-2.53,3.48-5.08,5.22-7.78s3.46-5.33,5.21-8l10.48-15.92,1.31-2c.45-.68.8-1.23,1.17-1.87a30.76,30.76,0,0,0,1.93-3.85,32.72,32.72,0,0,0,1.4-4.08c.18-.7.35-1.39.49-2.1l.45-2.31.46-2.34c.14-.72.26-1.43.36-2.15a35.38,35.38,0,0,0,.32-4.36,36.62,36.62,0,0,0-1-8.73l-2-9.31-1-4.63c-.33-1.47-.72-2.92-1.17-4.36s-1-2.83-1.55-4.28l-1.77-4.42-3.56-8.84-3.53-8.77a43.13,43.13,0,0,0-4.48-7.91l-5.4-7.85a28.4,28.4,0,0,1-4.26-9.1l-1.13-4.66c-.39-1.57-.72-3.18-1-4.79a47.76,47.76,0,0,1-.5-9.7,85.13,85.13,0,0,1,1.17-9.54l1.48-9.42-.57,9.52c-.17,3.19-.52,6.34-.39,9.45a52.13,52.13,0,0,0,1.17,9.26c.34,1.52.74,3,1.22,4.49l1.42,4.52a26.27,26.27,0,0,0,4.28,7.84l5.8,7.56a47.69,47.69,0,0,1,5.32,8.39c.75,1.53,1.37,2.95,2,4.4l1.94,4.36,3.88,8.7L316.5,357c.67,1.47,1.31,3.05,1.86,4.61s1.06,3.18,1.48,4.79L321,371l2.25,9.26a43.23,43.23,0,0,1,1.33,10.14,42.21,42.21,0,0,1-.27,5.15c-.09.85-.22,1.71-.36,2.55l-.41,2.35-.41,2.37c-.16.86-.36,1.7-.57,2.55a40.89,40.89,0,0,1-1.65,4.94,39,39,0,0,1-2.3,4.68c-.42.74-.92,1.53-1.34,2.18l-1.3,2-10.36,16c-1.72,2.66-3.46,5.33-5.21,8s-3.55,5.39-5.46,8a151,151,0,0,1-12.42,15c-2.23,2.36-4.52,4.67-6.9,6.87l-7.06,6.41-14.08,12.77-1.76,1.6L251,495.52l-3.38,3.35-6.76,6.69-13.54,13.38L213.75,532.2c-2.56,3.14-5,6.3-7.23,9.66a109.2,109.2,0,0,0-6.21,10.55,105.37,105.37,0,0,0-5,11.21,109.06,109.06,0,0,0-3.83,11.76,103.61,103.61,0,0,1,2.73-12.13A108.22,108.22,0,0,1,198.38,551.5Z" transform="translate(-157.2 -182.53)" style="fill: #fff"/>
    <path d="M273.2,564.58c1.8-3.47,3.65-6.91,5.6-10.3s3.93-6.76,6-10.09,4.15-6.63,6.34-9.87c4.34-6.51,9-12.83,13.61-19.06,9.35-12.42,18.52-25,27.93-37.33l7-9.3L343.2,464l1.75-2.33a20.31,20.31,0,0,0,1.42-2.09,20.78,20.78,0,0,0,2.05-4.53,19.89,19.89,0,0,0,.6-2.42c.08-.43.13-.78.2-1.27l.19-1.45,1.52-11.34c0-5.71,0-11.42.1-17.13l.19-17.33c0-2.52-.35-5.53-.59-8.39l-.71-8.65-1.36-17.32-.34-4.29c-.13-1.38-.29-2.76-.52-4.13a54.18,54.18,0,0,0-1.94-8.12c-.43-1.33-.91-2.65-1.43-3.94l-.83-2c-.28-.65-.57-1.28-.88-1.91a57,57,0,0,0-4.18-7.34c-6.35-9.68-12.66-19.4-18.83-29.22,7.22,9.07,14.29,18.26,21.29,27.48a55.34,55.34,0,0,1,4.93,7.43c.36.65.71,1.31,1,2l1,2c.64,1.35,1.22,2.73,1.76,4.13.3.78.59,1.58.86,2.38l.62-1.78c.44-1.3,1-2.58,1.31-3.87a29.13,29.13,0,0,0,1.17-7.95,28.59,28.59,0,0,0-1-7.88c-.72-2.61-1.53-5.19-2.5-7.7s-2.07-5-3.28-7.38-2.61-4.73-3.88-7.22-2.22-5.14-3.25-7.69l-3-7.63c-.49-1.3-1-2.51-1.46-3.88l-.67-2.05c-.23-.69-.36-1.33-.55-2l-1.06-4c-.35-1.34-.72-2.6-1-4a32.66,32.66,0,0,1-.61-4.23l-.37-4.09-.36-4.09c-.11-1.4-.17-2.79-.19-4.19a54,54,0,0,1,2.26-16.51,28.42,28.42,0,0,1,3.78-7.45c1.64-2.26,3.46-4.27,5.21-6.39l-2.28,3.42c-.77,1.14-1.57,2.25-2.24,3.42a28.94,28.94,0,0,0-3.07,7.42,46.78,46.78,0,0,0-1.22,8,61.93,61.93,0,0,0-.11,8.06c.07,1.34.19,2.67.36,4l.47,4.08.47,4.08a27.34,27.34,0,0,0,.67,3.88l2.15,7.87c.19.64.35,1.34.56,1.95l.62,1.85c.41,1.23,1,2.53,1.47,3.79l3,7.66c1,2.54,1.95,5.18,3.05,7.47s2.52,4.82,3.71,7.35a70.7,70.7,0,0,1,3.12,7.74,72.46,72.46,0,0,1,2.21,8,29.72,29.72,0,0,1,.56,8.41,29,29,0,0,1-1.85,8.14c-.8,2-1.71,3.85-2.61,5.73.63,1.94,1.18,3.9,1.62,5.9.32,1.47.59,2.95.8,4.44l.52,4.35,2.06,17.25,1,8.62c.31,2.9.7,5.64.83,8.91q.15,8.69.23,17.32l12.6-29.14,8.63-19.76c2.74-6.34,5.59-12.64,8.4-18.95l-.94-4.08c-.38-1.67-.74-3.34-1.26-5l-2.85-9.94c-1.86-6.63-3.87-13.22-5.37-20s-3.2-13.44-4.73-20.18-3.08-13.47-4.53-20.22c2.17,6.56,4.26,13.14,6.33,19.72l.65,2.09c.46-4.68,1.05-9.34,1.69-14l.33-2.45L377,277l.84-4.88c.57-3.27,1.32-6.54,2.2-9.75a83.75,83.75,0,0,1,7.61-18.49,66.93,66.93,0,0,1,5.62-8.28c2.12-2.57,4.27-5,6.5-7.49-1.69,2.83-3.56,5.58-5.3,8.34A88.68,88.68,0,0,0,385.94,254c-1.12,3.05-2.14,6.13-3,9.27s-1.65,6.27-2.3,9.47-1.41,6.42-2.08,9.64c-1.05,5.11-2.18,10.21-3.46,15.28,1.66,5.32,3.29,10.65,4.94,16,1,3.29,1.92,6.62,3.1,9.87l3.35,9.81,3.32,9.82c.59,1.62,1,3.31,1.47,5l1.36,5a2.52,2.52,0,0,1-.09,1.6l0,.09c-2.69,6.67-5.32,13.36-8.07,20l-8.18,20c-.79,1.94-1.6,3.88-2.4,5.82l4.09-6.17c4.09-6.12,8.17-12.26,12.17-18.43,2-3.08,4-6.18,5.83-9.27l1.37-2.3.52-1,.28-.52.34-.76c.89-1.86,1.81-3.45,2.76-5.08s1.9-3.22,2.88-4.8l.71-1.16.11-.49c.18-.87.35-1.74.5-2.61a64.9,64.9,0,0,0,.89-10.6c0-3.59-.12-7.35-.18-11l-.1-5.53-.2-5.52-.16-5.53c-.07-1.86-.06-3.76,0-5.63s.23-3.77.41-5.59l.54-5.51c.73-7.35,1.48-14.69,2.32-22-.05,7.38-.19,14.77-.35,22.15,0,3.69-.27,7.4-.17,11,.05,1.81.17,3.61.35,5.42l.53,5.52.49,5.52.39,5.53c.26,3.7.54,7.32.77,11.1a64.61,64.61,0,0,1-.5,11.46c-.12.95-.27,1.9-.43,2.85l-.13.7,0,.18,0,.09v0c.29-.71-.39,1-.33.86l-.17.29-.67,1.19q-1.35,2.38-2.64,4.8c-.84,1.59-1.7,3.23-2.35,4.73l-.2.5-.33.73-.7,1.48-1.38,2.51c-1.87,3.27-3.79,6.42-5.73,9.59q-5.83,9.45-11.8,18.78-12,18.62-24.32,37a3.44,3.44,0,0,1-1.49,1.24c0,.82,0,1.63,0,2.44,0,.13,0,.29,0,.42v0l-1.45,11.56-.18,1.45c-.06.47-.14,1.08-.24,1.61a28.27,28.27,0,0,1-.78,3.24,26.83,26.83,0,0,1-4.56,8.8l-1.77,2.31-3.55,4.62-7.1,9.25c-9.42,12.36-19.05,24.57-28.65,36.79L302.19,528c-2.37,3-4.72,6.1-7,9.22-4.54,6.24-9,12.55-13.18,19.06s-8.27,13.08-12.09,19.83l-5.76,10.13-5.83,10.11c3.15-7.12,6.37-14.18,9.65-21.25Q270.51,569.78,273.2,564.58Z" transform="translate(-157.2 -182.53)" style="fill: #fff"/>
    <path d="M416.32,302.43c.67-2.17,1.41-4.33,2.1-6.49s1.55-4.28,2.37-6.4,1.66-4.24,2.63-6.31A92.94,92.94,0,0,1,429.77,271l.28.09-8.79,25.84-9.08,25.74-.28-.1A94.68,94.68,0,0,1,414.49,309C415,306.79,415.71,304.63,416.32,302.43Z" transform="translate(-157.2 -182.53)" style="fill: #fff"/>
    <path d="M312.78,306.61h-3.11a4.43,4.43,0,0,1-2.44-.74L305,304.41a4.34,4.34,0,0,1-1.34-1.39l-4.07-6.63a3.81,3.81,0,0,1-.29-.57l-8.42-19.56a4.33,4.33,0,0,1-.28-.93l-2-5.87a.83.83,0,0,1,0-.15,28.05,28.05,0,0,1,.15-4.49l.63-2.62c.48-2,1.52-2.6,2.3-2.73,1.3-.23,2.73.7,3.87,2.46l10.17,12.91a2.26,2.26,0,0,1,.16.26L312.46,287a4.41,4.41,0,0,1,.35.8l4.2,13a4.44,4.44,0,0,1-4.23,5.82Z" transform="translate(-157.2 -182.53)" style="fill: #fff"/>
    <path d="M361.59,267.79a5,5,0,0,1-6.06-.37,22.49,22.49,0,0,1-7.12-11.67l-3-12.2a4.21,4.21,0,0,1-.12-.71L344,229.59a23.85,23.85,0,0,1,.09-5.6l.78-6c.27-2,.67-5.1,2.66-5.55,1.48-.34,3,.88,5.09,4a3,3,0,0,1,.27.57l2.88,7.31,4.07,10.79c.11.3,1.11,4.32,1.16,4.67l1,10.67L363.73,263A5,5,0,0,1,361.59,267.79Z" transform="translate(-157.2 -182.53)" style="fill: #fff"/>
    <path d="M412,261.34a5.92,5.92,0,0,0,.7-2.79V215.86a2.92,2.92,0,0,0-5.38-1.59l-3.11,4.35a2.61,2.61,0,0,0-.17.28c-.19.3-.64,1.08-1.14,1.95a19.66,19.66,0,0,0-2.4,7l-1.61,11a1.41,1.41,0,0,0,0,.24l-.94,11.75c-.54,4.62-.55,7.46,0,8.91l1.52,4.18a5.94,5.94,0,0,0,4.45,3.8,5.51,5.51,0,0,0,1.14.11,5.9,5.9,0,0,0,5.22-3.14Zm-.3-2.79h0V215.86h0Z" transform="translate(-157.2 -182.53)" style="fill: #fff"/>
    <path d="M427.64,268.51a3.79,3.79,0,0,1-3.23-1.8l-3-4.93a3.75,3.75,0,0,1-.45-2.83l2-8.48.51-2a32.43,32.43,0,0,1,3.59-8.67l4.78-8,3.92-7.16a3.8,3.8,0,0,1,1.42-1.45l1.91-1.11a3.76,3.76,0,0,1,5.57,4.07l-4,18.18c0,.15-.08.29-.13.44l-7.25,20.69a3.78,3.78,0,0,1-2.54,2.38l-2.09.58A3.45,3.45,0,0,1,427.64,268.51Z" transform="translate(-157.2 -182.53)" style="fill: #fff"/>
    <path d="M287.58,430.87l.14.58-8.34,2.22L271,435.79,254.28,440l-16.78,4-8.39,2-8.41,1.93-.14-.58a81.28,81.28,0,0,1,15.79-8,134.76,134.76,0,0,1,16.49-5.22,132.76,132.76,0,0,1,17-3.1A81.1,81.1,0,0,1,287.58,430.87Z" transform="translate(-157.2 -182.53)" style="fill: #fff"/>
  </g>
  <path d="M411.94,206c10.44.58,10.87,1.22,11.27,16.51,0,0,0,0,0,0,.4-15.29.83-15.93,11.28-16.51,0,0,0,0,0,0-10.45-.59-10.88-1.22-11.28-16.51,0,0,0,0,0,0-.4,15.29-.83,15.92-11.27,16.51C411.92,206,411.92,206,411.94,206Z" transform="translate(-157.2 -182.53)" style="fill: #fff"/>
  <path d="M322.78,201.54c12,.67,12.48,1.39,12.94,18.94,0,0,0,0,0,0,.46-17.55.95-18.27,12.93-18.94,0,0,0,0,0,0-12-.67-12.47-1.39-12.93-18.94,0,0,0,0,0,0-.46,17.55-1,18.27-12.94,18.94C322.76,201.49,322.76,201.54,322.78,201.54Z" transform="translate(-157.2 -182.53)" style="fill: #fff"/>
  <path d="M304.3,258.56c8.18.46,8.52,1,8.84,12.95,0,0,0,0,0,0,.31-12,.65-12.49,8.84-12.95,0,0,0,0,0,0-8.19-.46-8.53-.95-8.84-12.95,0,0,0,0,0,0-.32,12-.66,12.49-8.84,12.95A0,0,0,0,0,304.3,258.56Z" transform="translate(-157.2 -182.53)" style="fill: #fff"/>
</svg>
