<?xml version="1.0" encoding="utf-8"?>
<!-- Generator: Adobe Illustrator 24.1.2, SVG Export Plug-In . SVG Version: 6.00 Build 0)  -->
<svg version="1.1" id="Lager_1" xmlns="http://www.w3.org/2000/svg" xmlns:xlink="http://www.w3.org/1999/xlink" x="0px" y="0px"
	 width="216px" height="205px" viewBox="0 0 216 205" style="enable-background:new 0 0 216 205;" xml:space="preserve">
<g id="haire">
	<path id="haire_x5F_left_1_" d="M83.2,52.7C67.4,67.5,50,85.8,62.8,108.6C58.9,87.4,72.4,68.4,83.2,52.7z"/>
	<path id="haire_x5F_right" d="M122.2,4.7c47.5,9.4,65.8,62.4,56,105.5c-2-16.1-6.1-32.5-15.3-46.2c10.7,24.5,9.4,50.4,7,76.1
		C208.4,94,188.9,7.7,122.2,4.7z"/>
	<path id="haire_x5F_left" d="M97.4,6C71.9,13.6,50.6,45.1,59,71.1C61.6,44.8,76.4,21.5,97.4,6z"/>
	<path id="haire_x5F_middle" d="M100.1,17.7c-5.7,45,49.4,62.3,59,101.8C158.5,74.8,109.5,59.9,100.1,17.7z"/>
	<path id="middle_x5F_haire_x5F_fingers" d="M146.5,140.9c0,0,0-0.1,0.1-0.1l2.2-2.4l3.6,6.5c0.8-1.6,1.4-3.3,1.7-5.1
		c8.2-40.7-54.3-67.2-57.1-109.5c-8.1,51,78.2,87.9,35.3,135.7c-1,1.2-2.8,2.9-4.1,3.9c0,0,0,0,0,0c-0.7,0.6-1.8,0.3-2.1-0.6
		c-0.6-1.8-1.4-3.5-2.3-5.1c-2.1-3.8-4.9-7.1-8-10.1c-3.1-2.9-6.4-5.5-9.8-7.9c-0.9-0.6-1.7-1.2-2.6-1.7c-0.9-0.6-1.8-1.1-2.7-1.6
		c-1.8-1-3.5-2.1-5.2-3.1c-3.5-2.1-6.9-4.3-10.3-6.5l0,0c-2.6-1.8-4.7-4.3-5.7-7.3c-7.4-21.6,0.7-45.6,12.1-64.7
		c-13.2,17.4-37.9,54.7-12,70c0.9,0.5,1.7,1.2,2.5,1.9c0.7,0.6,1.3,1.2,2,1.8c3.1,2.7,6.4,5.2,9.7,7.7c1.7,1.2,3.3,2.4,5,3.6
		l1.2,0.8l1.2,0.9l2.4,1.9c3.1,2.5,6.2,5.1,8.9,7.9c5.5,5.5,10.1,12,11.2,19.5c0.2,0.9,0.3,1.8,0.3,2.8l0.1,3.1
		c0.1,2.1,0.3,4.1,0.6,6.2c0.3,2.1,0.8,4.1,1.5,6.1c0.7,2,1.8,3.9,3.1,5.4c-1.7-3.8-2.1-7.8-2.1-11.8c0.1-0.4,0.2-1.1,0.3-1.6
		c0.4-1.4,0.8-3.7,1.8-6c2.6-6,5.9-9.8,7-11.3c0.9-1.2,4.8-6.7,5.4-8l4.5-7.3c0.2,0.7,0.4,1.3,0.6,1.9c0.1,0.4,0.3,0.9,0.5,1.3
		c0,0,0,0,0,0l0,0c0,0.1,0.1,0.3,0.1,0.4c0,0.1,0,0.3,0,0.4c0,0.3-0.1,0.5-0.1,0.8c-0.1,0.6-0.3,1.2-0.4,1.8
		c-0.3,1.2-0.7,2.3-1.1,3.5c-0.4,1.1-0.8,2.2-1.3,3.3c-0.5,1.1-1.1,2-1.7,3.1c-0.6,1-1.2,2.1-1.9,3.1c-0.6,1-1.3,2-2,3.1
		c-1.3,2.2-2.3,4.7-2.8,7.2l0,0c-0.1,0.5-0.1,1-0.1,1.6c0.3-0.5,0.5-0.9,0.8-1.4l0,0c1.3-2.1,2.7-4.1,4.2-6c0.7-0.9,1.6-1.9,2.3-2.9
		c0.8-1,1.5-2.1,2.1-3.2c0.6-1.1,1.3-2.3,1.8-3.5c0.5-1.2,0.8-2.5,1.1-3.8c0.3-1.3,0.4-2.6,0.4-3.9c0-0.1,0-0.2,0-0.3
		c1.4,3.8,2.9,7.5,3.1,11.5c0,4,0.7,4.1-1.1,9.8c-1.1,3.4-2.8,4.4-6.8,8.6c4.6-3.5,5.4-3.5,7-5.4c1.3-1.5,1.6-2.1,2.4-5
		c1-3.9,0.9-5,0.9-8c-0.1-1.5-0.2-3-0.5-4.5c-0.3-1.5-0.7-2.9-1.1-4.4c-1-2.8-2.2-5.4-3.3-8c-1.1-2.6-2.1-5.2-2.6-8
		c-0.3-1.7-0.4-3.4-0.2-5.2L146.5,140.9z"/>
</g>
<g id="face_x5F_details">
	<path id="eye" d="M76.5,95.8c4.2-0.2,9.6-2,13.3-4c6.3-1.9,12.8,4.3,14.7,9.9c-4.1-0.5-7.7,2.2-11.7,2.4
		C85.6,105.7,82.8,97.3,76.5,95.8z"/>
	<path id="lip_x5F_top" d="M103.7,139.8c3.2-0.9,7.1-6.1,10.4-4.1c1.1,1,2.7,1.1,3.9,0.1c2.9-2.1,6.6,2,9,3.4
		c1.2,0.8,2.8,0.8,3.7,2.1c-2.5,1.3-5.2,1.1-8,0.2c-0.5-0.2-4.2-0.1-6.4-0.2c-2.6,0-3.9-0.1-5.5,0.3c-3.4,0.9-6.1,2.3-8.5-1.4
		C102.7,140.1,103.3,140,103.7,139.8z"/>
	<path id="lip_x5F_bottom" d="M107.2,145.4c3.8,4.3,12.3,6.7,16.4,1.7c0.4-0.4,2.3-1.5,2.8-1.9c0.8-1-3-1.6-3.7-1.6
		C120.1,144.1,107.1,142.2,107.2,145.4z"/>
	<path id="nose_x5F_hole" d="M111,128.1l0.8,0c0.2,0,0.3,0,0.5,0l1.7-0.2l-2.4-1.2c-0.4-0.2-0.8-0.3-1.2-0.4l-0.4-0.1
		c-0.8-0.1-1.6,0-2.4,0.3l-0.1,0.1l0.5,0.5c0.3,0.3,0.7,0.5,1.1,0.7C109.8,128,110.4,128.1,111,128.1z"/>
	<path id="eyebrow" d="M102.3,87.2c-0.4-7.3-14.4-11.1-20.1-7.2c3.9,0.2,9.7,0.5,12.9,2.8C97.4,84.5,99.2,92,102.3,87.2z"/>
</g>
<g id="right_x5F_hand_x5F_fingers">
	<path d="M188,148.2c-0.9,1.4-1.7,2.8-2.5,4.3c-0.7,1.4-1.3,2.8-1.8,4.3c0-0.9,0.1-1.9,0.1-2.8c0.2-3.4,0.4-6.8,0.8-10.2
		c-1.1,3.2-2,6.6-2.7,10c-0.3,1.7-0.7,3.4-0.9,5.1c-0.3,1.7-0.5,3.4-0.7,5.2l0,0.2c0,1-0.7,2.4-1.4,3.6c-0.8,1.3-1.7,2.5-2.7,3.7
		c-1.4,1.7-2.9,3.3-4.5,5c1-1.6,1.9-3.2,2.6-5.1c0.5-1.2,0.8-2.5,1-3.8c0.2-1.3,0.2-2.5,0.1-3.7c-0.1-2.4-0.5-4.7-0.9-7.1
		c-0.4-2-0.7-3.9-1.2-5.9c0,0,0-0.1,0-0.1c0.9-1.4,1.7-2.9,2.3-4.4c0.4-1,0.8-1.9,1.2-2.9c0.4-0.9,0.7-1.9,1.1-2.7
		c0.4-0.9,0.8-1.8,1.2-2.7c0.4-0.9,0.8-1.7,1.3-2.6c0.5-0.9,0.9-1.7,1.5-2.6c0.5-0.9,1.1-1.8,1.5-2.8l-0.1-0.1
		c-1.4,1.5-3,2.9-4.2,4.7c-1.2,1.7-2.2,3.6-3,5.5c-0.8,1.9-1.4,3.9-2,5.9l-1.1,3.7c-0.5-2.1-1-4.3-1.5-6.4c0.1,4.7,0.4,9.3,0.6,13.9
		c0.2,4.6,0.4,9.2-1.4,12.8c-0.9,1.8-2.2,3.6-3.5,5.5c-0.9,1.3-1.9,2.6-2.8,3.9c0.2-2.4,0.1-4.9-0.2-7.3c-0.2-1.4-0.5-2.9-0.9-4.2
		c0,0,0,0,0,0c0.9-0.8,1.6-1.9,2-3.1c0.5-1.4,0.7-2.9,0.7-4.4c-0.1-1.5-0.3-2.9-0.7-4.3c-0.4-1.4-0.9-2.7-1.5-3.9
		c-0.7-1.9-1.2-3.8-1.6-5.8c-0.4-2-0.7-4-0.7-6c0-2,0.2-4.1,0.8-6c0.6-1.9,1.7-3.7,3.2-5.2l-0.2-0.2c-1.7,1.3-3.1,3-3.9,5
		c-0.9,2-1.4,4.2-1.5,6.3c-0.3,4.3,0.4,8.6,1.3,12.8l0,0.1l1.2,3.8c0.4,1.2,0.8,2.5,1,3.7c0.2,1.2,0.3,2.5,0.2,3.7
		c-0.1,0.9-0.3,1.7-0.5,2.6c0,0,0,0,0,0c0-0.1-0.1-0.2-0.1-0.4c-0.7-1.8-1.3-3.6-2-5.3c-1.4-3.5-3.2-6.8-5.3-9.8
		c1.5,3.4,2.8,6.8,3.8,10.3c0.2,0.9,0.5,1.7,0.7,2.6l0.1,0.3c0.1,0.6,0.2,0.9,0.3,1.3c0.1,0.4,0.1,0.6,0.2,1.1
		c0.4,1.9,0.6,3.8,0.6,5.5c0.1,3.6,0.2,6.7-0.4,10.6c0,0,0,0,0,0c0,1.5-0.3,3.2-0.9,4.9l-0.4,1.1c-0.7,1.9-1.6,3.7-2.7,5.3
		c-0.4,0.7-0.9,1.3-1.4,1.9l-3.8,4.5c4-2.7,11.7-8,14.7-12c2.3-2.3,4.5-4.7,6.7-7.1c2.2-2.4,4.3-5,6.3-7.7c1-1.4,1.9-2.8,2.7-4.4
		c0.4-0.8,0.8-1.6,1.1-2.5c0.3-0.9,0.5-1.9,0.4-3c0-0.9,0-1.8,0-2.7c0-0.3,0.1-0.5,0.3-0.7c0.7-0.8,1.3-1.6,1.9-2.5
		c0.9-1.4,1.7-2.8,2.5-4.3c0.7-1.5,1.4-3,1.9-4.5c0.5-1.6,0.9-3.2,1.1-4.9C190,145.5,189,146.8,188,148.2z"/>
</g>
<g id="left_x5F_hand_x5F_fingers_1_">
	<path id="left_x5F_hand_x5F_small_x5F_finger_x5F_line" d="M119.8,185.1c-1.5-1.8-3.1-3.4-4.9-4.9c-1.8-1.4-3.7-2.7-5.7-3.7
		c-2-1.1-4.1-2.1-6.2-2.9c-2.1-0.9-4.3-1.7-6.4-2.4c-8.7-3.1-17.8-5.6-26.1-10.5c-2.1-1.3-4-2.8-5.9-4.4c-1.8-1.7-3.4-3.6-4.7-5.8
		c-1.2-2.2-2.3-4.5-2.9-6.9c-0.2-0.6-0.3-1.2-0.4-1.8c-0.1-0.6-0.3-1.2-0.3-1.8l-0.2-1.9l0-1.8c0.1-4.9,1.2-9.4,1.6-14
		c0.2-2.3,0.2-4.5-0.2-6.7c-0.4-2.2-1.3-4.4-2.6-6.3c1.6,1.7,2.9,3.7,3.7,6c0.8,2.3,1,4.7,1.1,7.1c0,4.8-0.7,9.4-0.5,13.8
		c0.1,2.2,0.6,4.3,1.1,6.4c0.6,2.1,1.6,4,2.7,5.8c1.2,1.8,2.6,3.4,4.2,4.9c1.6,1.4,3.4,2.7,5.3,3.9c3.8,2.3,8,4.2,12.2,5.9
		c4.3,1.8,8.6,3.3,13,5.2c4.3,1.8,8.6,3.9,12.5,6.6c2,1.3,3.8,2.9,5.4,4.6C117.3,181.2,118.7,183.1,119.8,185.1z"/>
	<path id="left_x5F_hand_x5F_fingers" d="M96.7,193.2c-2.2-2-4.4-3.8-6.8-5.6c-2.3-1.8-4.7-3.5-7.2-5.1c-2.4-1.6-4.9-3.1-7.4-4.5
		c-1.8-1.2-3.5-2.1-5.2-3.1c-1.7-1-3.4-1.9-5.1-3c-1.6-1-3.2-2.1-4.5-3.3c-1.3-1.2-2.5-2.6-2.8-3.9l0,0c0-0.1-0.1-0.2-0.1-0.3
		c-1.5-3.3-3.1-6.7-4.4-10c-1.3-3.4-2.6-6.8-3.4-10.3c-0.4-1.7-0.8-3.5-0.9-5.3c-0.2-1.8-0.3-3.6-0.3-5.4c0-3.6,0.3-7.3,0.9-11
		c-1.3,3.5-2.1,7.1-2.5,10.9c-0.3,2.1-0.4,4.3-0.3,6.4c-0.6-0.8-1.1-1.7-1.4-2.6c-0.5-1.2-0.7-2.4-0.8-3.6c-0.1-1.2-0.1-2.5-0.1-3.8
		l0.1-4l0-0.1c-0.3-4.2-0.7-8.6-2.2-12.7c-0.7-2-1.7-4-3.1-5.7c-1.4-1.7-3.2-3-5.1-3.8l-0.1,0.3c1.8,1,3.3,2.5,4.4,4.1
		c1.1,1.7,1.8,3.6,2.4,5.5c0.5,2,0.8,4,0.9,6c0.1,2,0.1,4,0,6c-0.2,1.4-0.4,2.8-0.4,4.2c0,1.4,0.1,2.9,0.5,4.4
		c0.4,1.4,1,2.9,1.9,4.1c0.8,1.1,1.9,2,3,2.5c0.1,1.4,0.2,2.7,0.4,4.1c0.6,3.8,1.6,7.4,2.8,11c0.2,0.5,0.3,1,0.5,1.4
		c-1.4-1.3-2.7-2.6-4.1-3.8c-1.6-1.5-3.3-2.9-4.9-4.4c-1.5-1.5-3.1-2.9-4.1-4.6c-1-1.6-1.4-3.7-1.8-5.8c-0.4-2.1-0.7-4.3-1.1-6.5
		c-0.7-4.4-1.5-8.7-2.5-13.1c0.1,1.6,0.1,3.2,0.2,4.8c-0.3-0.7-0.6-1.4-0.9-2c-0.4-1-1-1.8-1.5-2.8c-0.5-0.9-1.2-1.8-1.8-2.7
		c-0.7-0.8-1.4-1.7-2.2-2.4c-0.8-0.7-1.7-1.5-2.6-2c-0.9-0.6-1.9-1.1-2.9-1.5c-1-0.4-2-0.7-3.1-0.9l-0.1,0.2
		c1.8,1.1,3.6,2.1,5.2,3.4c1.6,1.3,3,2.9,4.3,4.5c1.3,1.6,2.4,3.4,3.6,5.1l1.9,2.9c0.3,0.5,0.5,1,0.5,1.6c0.1,1.7,0.2,3.5,0.2,5.2
		c0.1,2.2,0.2,4.4,0.4,6.7c0.2,2.2,0.5,4.6,1.7,6.9c1.1,2.2,2.7,3.9,4.2,5.5c-1.7-1.2-3.4-2.4-5-3.7c-1.1-0.9-2.2-1.8-3.1-2.8
		c-0.9-1-1.7-2.1-2-3.1l0-0.1c-0.6-1.6-1.3-3.2-2-4.8c-0.7-1.6-1.4-3.1-2.2-4.7c-1.5-3.1-3.2-6.1-5.1-8.9c1.3,3.2,2.5,6.4,3.7,9.6
		c0.3,0.8,0.5,1.5,0.8,2.3c-0.8-1.2-1.6-2.3-2.5-3.3c-1.1-1.2-2.3-2.3-3.6-3.4c-1.3-1-2.7-1.9-4.4-2.6c0.5,1.8,1.2,3.3,2.1,4.7
		c0.9,1.4,1.9,2.7,2.9,3.9c1.1,1.2,2.3,2.3,3.6,3.4c0.9,0.7,1.8,1.3,2.7,1.8c0.5,0.3,0.9,0.7,1,1.2c0.2,0.6,0.3,1.1,0.5,1.7l0-0.1
		c0.4,1.9,1.3,3.2,2.3,4.5c1,1.2,2.1,2.3,3.2,3.4c2.2,2.1,4.6,3.9,7.1,5.6c2.4,1.8,4.9,3.4,7.4,5l3.7,2.4c1.2,0.8,2.5,1.6,3.4,2.4
		l0.1,0.1c0.2,0.1,0.4,0.2,0.6,0.3c0,0.1,0.1,0.2,0.1,0.2c0.7,2.5,2.3,4.2,3.8,5.6c1.6,1.5,3.4,2.6,5.1,3.7c1.8,1.1,3.5,2.1,5.3,3
		c1.8,1,3.6,1.8,5.1,2.8l0.1,0.1l0,0c2.6,1.3,5.1,2.7,7.6,4.1c2.5,1.4,5,2.9,7.4,4.4c2.4,1.5,4.9,3.1,7.3,4.7
		c2.4,1.6,4.8,3.3,7.1,5.1C100.9,197.2,98.8,195.1,96.7,193.2z"/>
	<path id="left_x5F_hand_x5F_thumb_x5F_line" d="M95.8,151.4c-1.9-0.9-3.8-1.3-5.6-1.6c-1.9-0.2-3.6-0.3-5.6-0.1
		c-0.6,0.1-1.3,0.2-1.9,0.4l-0.1-0.4l0-0.1l-0.1-0.2l-0.1-0.2c-0.3-0.6-0.7-1.2-1.1-1.7c-0.8-1.1-1.7-2.2-2.7-3.1
		c-1-1-2.1-1.8-3.1-2.6c-1-0.8-2-1.6-3-2.4l-1.5-1.2c-0.5-0.4-0.9-0.8-1.4-1.2c-0.9-0.8-1.7-1.7-2.6-2.6c-0.8-0.9-1.6-1.9-2.4-2.9
		c-0.4-0.5-0.8-1-1.1-1.6c-0.2-0.3-0.3-0.5-0.5-0.7c-0.1-0.1-0.1-0.3-0.2-0.4l-0.1-0.4l0,0c-0.1-0.4-0.1-0.8-0.2-1.2
		c-0.2,0.4-0.3,0.8-0.5,1.1l0,0c-0.1,0.2-0.1,0.4-0.1,0.6c0,0.2,0,0.4,0,0.6c0,0.4,0.1,0.8,0.2,1.1c0.1,0.7,0.3,1.3,0.5,2
		c0.4,1.3,1,2.6,1.7,3.8c0.7,1.2,1.5,2.3,2.5,3.4c0.5,0.5,1,1,1.5,1.5c0.5,0.4,1,0.9,1.5,1.3c1.1,0.8,2.2,1.6,3.3,2.3
		c1.2,0.7,2.3,1.3,3.4,1.9c1.1,0.6,2.2,1.3,3.2,2c0.6,0.3,1.1,0.7,1.6,1.1l0.2,0.1l0.1,0l0,0l0,0c0,0-0.1-0.2-0.1-0.1l0,0l0.1,0.1
		l0.2,0.3c-0.1,0-0.3,0.1-0.4,0.1c-0.9,0.3-1.7,0.7-2.6,1.1c-1.7,0.8-3.3,1.8-4.8,3.3l0.1,0.3c1.8-0.4,3.6-0.8,5.3-1.2
		c1.8-0.4,3.5-0.9,5.3-1.1c1.8-0.2,3.6-0.3,5.4-0.5c1.8-0.1,3.6-0.3,5.4-0.5L95.8,151.4z"/>
</g>
<g id="left_x5F_nails">
	<path id="left_x5F_nail_x5F_small" d="M55.7,105.3c0.2-2-0.7-5.7-2.4-6.7c-0.6-0.3-1.3-0.1-1.7,0.5c-3,4-3.2,15.8-2.6,20.8
		c0.4,3.7,4.4,2.8,5.6,0.3C56.3,116.8,55.6,109.1,55.7,105.3z"/>
	<path id="left_x5F_nail_x5F_middle" d="M35.6,110.3c0.1-2.5-1.8-12.9-4.5-15.8c-0.5-0.5-1-0.5-1.5-0.5c-0.5,0-0.8,0.2-1.4,1
		c-0.2,0.4-1,4.2-1.1,4.8C25.8,107.8,33.2,129.4,35.6,110.3z"/>
	<path id="left_x5F_nail_x5F_ring" d="M23.1,117.1c-1.8-4.3-5.5-11.3-9.6-14.2C2,96.7,15.6,117.4,16,119.6
		C18.3,124.1,24.8,122.4,23.1,117.1z"/>
	<path id="left_x5F_nail_x5F_pont" d="M11.4,114.1c-1.1-1.3-2.1-2.3-2.9-3.2c-1.5-1.6-4-3.2-4.5-2.4c-1.3,2.1,4.4,13.9,9,16.4
		c0.5,0.2,1,0.3,1.5,0c1.8-0.9,2.1-2.8,1.1-4.8C14.1,117.4,12.5,115.4,11.4,114.1z"/>
</g>
<g id="right_x5F_nails">
	<path id="right_x5F_nail_x5F_point" d="M195.5,125.4c-0.2-0.2-0.5-0.3-0.8-0.2c-1.1,0.2-2.6,2.4-3.3,3.8c-0.5,1-1.1,2.2-1.7,3.7
		l0,0c-0.8,1.8-1.6,4-2.1,6.9c-0.2,1.4-0.1,2.6,0.5,3.5c0.4,0.7,1.1,1.2,2,1.4c0.1,0,0.2,0,0.4,0c0.5,0,1-0.2,1.3-0.6
		c2.8-2.9,4.5-11.2,4.5-15.4C196.2,126.9,196,125.9,195.5,125.4z"/>
	<path id="right_x5F_nail_x5F_middle" d="M189.6,119.8c-6.2-0.1-9.1,17.3-9.4,19.6c-0.7,5.2,4.7,5.3,6.3,0.6
		C188.1,135.1,191.9,120.9,189.6,119.8z"/>
	<path id="right_x5F_nail_x5F_ring" d="M170.8,126.6c0,0-1.9-6.6-2.3-6.9c-0.6-0.5-1-0.8-1.8-0.6c-0.4,0.1-1,0.3-1.3,1
		c-1.6,3-0.5,14.9,0.1,17l0,0c2.1,4.9,3.4,5.6,4.1,5.7c0,0,0.1,0,0.2,0c0.4,0,0.9-0.1,1.3-0.8C172.9,139.6,172.3,130.9,170.8,126.6z
		"/>
	<path id="right_x5F_nail_x5F_small" d="M155.4,149.3c-0.3-3.1-3-14.5-6.6-17.1c-0.6-0.5-1.5-0.5-2.1,0c-1.4,1.2-1.7,4.2-1.2,5.8
		c0.2,0.6,1.3,3.7,1.4,4.6c0.6,3,1.3,6.7,2.8,8.4c0.6,0.7,1.6,1.1,2.6,1.2c0.6,0,1.1-0.1,1.6-0.3C155,151.5,155.5,150.5,155.4,149.3
		z"/>
</g>
</svg>
