<svg xmlns="http://www.w3.org/2000/svg" width="220" height="255" viewBox="0 0 220 255">
  <g id="Lager_1" data-name="Lager 1">
    <g id="face_details">
      <path id="eye" d="M75,93.39a35.32,35.32,0,0,0,13.3-4C94.55,87.55,101,93.7,103,99.31c-4.1-.5-7.68,2.17-11.68,2.45C84.08,103.29,81.24,94.88,75,93.39Z" style="fill: #1d1d1b"/>
      <path id="lip_top" d="M102.15,137.34c3.17-.86,7.08-6.12,10.4-4.1a2.92,2.92,0,0,0,3.87.15c2.86-2,6.56,2,9,3.36,1.19.81,2.85.81,3.7,2.14-2.47,1.33-5.16,1.05-8,.15-.52-.16-4.22-.13-6.4-.15-2.59,0-3.86-.13-5.48.3-3.45.9-6.09,2.35-8.48-1.42A4.52,4.52,0,0,0,102.15,137.34Z" style="fill: #1d1d1b"/>
      <path id="lip_bottom" d="M105.63,143c3.81,4.28,12.34,6.73,16.44,1.7.42-.42,2.26-1.54,2.76-1.89.82-1-3-1.6-3.71-1.63C118.51,141.68,105.56,139.77,105.63,143Z" style="fill: #1d1d1b"/>
      <path id="nose_hole" d="M109.49,125.66h.82l.48,0,1.65-.23-2.4-1.17a4.16,4.16,0,0,0-1.22-.4l-.37-.06a4.09,4.09,0,0,0-2.39.3l-.13.06.54.45a5.1,5.1,0,0,0,1.12.7A4.22,4.22,0,0,0,109.49,125.66Z" style="fill: #1d1d1b"/>
      <path id="eyebrow" d="M100.71,84.77c-.43-7.26-14.44-11.09-20.09-7.24,3.9.23,9.72.51,12.93,2.84C95.86,82.05,97.66,89.55,100.71,84.77Z" style="fill: #1d1d1b"/>
    </g>
    <g id="left_nails">
      <path id="left_nail_small" d="M54.18,102.89c.15-2-.74-5.7-2.39-6.65a1.32,1.32,0,0,0-1.7.46c-3,4-3.18,15.81-2.64,20.77.37,3.73,4.4,2.83,5.64.29C54.71,114.33,54.07,106.71,54.18,102.89Z"/>
      <path id="left_nail_middle" d="M34.08,107.87c.06-2.54-1.77-12.9-4.54-15.81a1.78,1.78,0,0,0-1.46-.52c-.55,0-.84.23-1.36,1a42.4,42.4,0,0,0-1.1,4.82C24.27,105.33,31.65,126.92,34.08,107.87Z"/>
      <path id="left_nail_ring" d="M21.54,114.66c-1.79-4.29-5.47-11.25-9.57-14.15C.49,94.26,14.05,115,14.42,117.22,16.78,121.68,23.21,120,21.54,114.66Z"/>
      <path id="left_nail_pont" d="M9.84,111.7c-1.1-1.29-2.09-2.31-2.91-3.16-1.5-1.58-4-3.16-4.51-2.39-1.3,2.11,4.4,13.91,9,16.39a1.57,1.57,0,0,0,1.46,0c1.81-.9,2.06-2.79,1.07-4.76A30.81,30.81,0,0,0,9.84,111.7Z"/>
    </g>
    <g id="right_nails">
      <path id="right_nail_point" d="M194,123a.85.85,0,0,0-.78-.23c-1.09.2-2.63,2.38-3.33,3.79-.48,1-1.09,2.22-1.74,3.73h0a32.19,32.19,0,0,0-2.1,6.9,4.84,4.84,0,0,0,.46,3.45,3,3,0,0,0,2,1.39,2.19,2.19,0,0,0,.36,0,1.86,1.86,0,0,0,1.34-.59c2.77-2.9,4.54-11.22,4.51-15.44C194.68,124.47,194.44,123.48,194,123Z"/>
      <path id="right_nail_middle" d="M188.08,117.32c-6.19-.14-9.12,17.27-9.45,19.62-.72,5.18,4.75,5.27,6.3.61C186.57,132.65,190.3,118.43,188.08,117.32Z"/>
      <path id="right_nail_ring" d="M169.25,124.19s-1.86-6.56-2.28-6.93-1-.85-1.78-.62a1.94,1.94,0,0,0-1.32,1c-1.62,3-.52,15,.11,17l0,.05c2.07,4.9,3.35,5.58,4.14,5.67h.16a1.54,1.54,0,0,0,1.28-.76C171.31,137.19,170.77,128.46,169.25,124.19Z"/>
      <path id="right_nail_small" d="M153.87,146.89c-.25-3.06-3-14.5-6.58-17.13a1.71,1.71,0,0,0-2.1,0c-1.44,1.16-1.65,4.21-1.16,5.8.16.65,1.25,3.71,1.43,4.59.57,3,1.29,6.66,2.84,8.41a3.86,3.86,0,0,0,2.62,1.19,3.34,3.34,0,0,0,1.58-.27A2.41,2.41,0,0,0,153.87,146.89Z" style="fill: #1d1d1b"/>
    </g>
  </g>
  <g id="Lager_2" data-name="Lager 2">
    <g>
      <path d="M145,160l.21-.77c.13-.59.28-1.18.41-1.78a5,5,0,0,0,.13-.84,3.23,3.23,0,0,0,0-.44,1,1,0,0,0-.07-.37v-.07c-.15-.43-.31-.85-.46-1.28-.21-.64-.42-1.29-.62-1.94l-3,4.82-.51.82c1.21,1.21,2.31,2.43,3.33,3.64C144.59,161.17,144.79,160.59,145,160Z" style="fill: none"/>
      <path d="M116.17,152.66h0a29.56,29.56,0,0,0-21.05,8.68C78.85,177.56,81.48,192.56,91,211.51a126.94,126.94,0,0,0,23.84,32.81l1.32,1.32,1.31-1.32a127,127,0,0,0,23.85-32.81c9.5-18.95,12.14-33.95-4.09-50.17A29.53,29.53,0,0,0,116.17,152.66Z" style="fill: none"/>
      <path d="M146.83,159.42a18.76,18.76,0,0,1-.11,2.11,17.36,17.36,0,0,1-.26,1.76c-.05.28-.13.56-.19.83a45.68,45.68,0,0,1,3.56,5.55c-.36-3.61-1.75-7-3-10.6C146.83,159.19,146.83,159.3,146.83,159.42Z" style="fill: none"/>
      <path d="M61.25,106.12C57.3,85,70.8,65.94,81.67,50.29,65.81,65.11,48.47,83.4,61.25,106.12Z"/>
      <path d="M176.6,107.83c-2-16.15-6.14-32.51-15.26-46.17,10.66,24.49,9.38,50.42,7,76.11,38.47-46.16,19-132.55-47.75-135.48C168.09,11.71,186.42,64.68,176.6,107.83Z"/>
      <path d="M95.86,3.57C70.39,11.2,49,42.64,57.47,68.68,60,42.42,74.86,19.11,95.86,3.57Z"/>
      <path d="M98.54,15.31c-5.7,45,49.38,62.26,59,101.79C156.9,72.34,107.91,57.49,98.54,15.31Z"/>
      <path d="M186.46,145.72a36.9,36.9,0,0,0-4.24,8.54c0-.95.07-1.9.13-2.85.21-3.39.44-6.79.81-10.2a77.41,77.41,0,0,0-2.72,9.95c-.35,1.69-.7,3.38-.95,5.09s-.49,3.42-.68,5.15v.17a8.86,8.86,0,0,1-1.44,3.59,35.39,35.39,0,0,1-2.72,3.7c-1.41,1.69-2.91,3.34-4.46,5a31.26,31.26,0,0,0,2.63-5.13,16.88,16.88,0,0,0,1-3.76,22.44,22.44,0,0,0,.12-3.74,61.44,61.44,0,0,0-.87-7.05c-.36-2-.75-3.93-1.16-5.88l0-.13a34.06,34.06,0,0,0,2.32-4.43c.44-1,.81-1.91,1.21-2.87s.7-1.85,1.12-2.75.77-1.81,1.19-2.7.85-1.75,1.29-2.64.94-1.75,1.47-2.62a30,30,0,0,0,1.54-2.81l-.14-.14a36.15,36.15,0,0,0-4.16,4.66,29.51,29.51,0,0,0-3,5.47c-.8,1.94-1.38,3.94-2,5.92l-1.08,3.68c-.47-2.14-1-4.27-1.5-6.39.09,4.65.42,9.28.6,13.88s.43,9.23-1.36,12.83a38.81,38.81,0,0,1-3.53,5.51c-.92,1.29-1.86,2.6-2.79,3.92a36.64,36.64,0,0,0-.22-7.32,29.7,29.7,0,0,0-.88-4.25s0,0,0,0a8.49,8.49,0,0,0,2-3.07,11.61,11.61,0,0,0,.7-4.44,18.14,18.14,0,0,0-.7-4.32,25.43,25.43,0,0,0-1.53-3.93,49.51,49.51,0,0,1-1.63-5.8,31.75,31.75,0,0,1-.73-6,18.88,18.88,0,0,1,.78-6,13,13,0,0,1,3.16-5.18l-.2-.23a12.93,12.93,0,0,0-3.93,5,18.32,18.32,0,0,0-1.5,6.31,46.42,46.42,0,0,0,1.33,12.78l.05.14,1.21,3.79a32.13,32.13,0,0,1,1,3.7,13.37,13.37,0,0,1,.23,3.73,11.22,11.22,0,0,1-.54,2.57h0c0-.12-.07-.24-.11-.36-.72-1.8-1.3-3.59-2-5.33a48.68,48.68,0,0,0-5.35-9.8,70.39,70.39,0,0,1,3.76,10.34c.23.88.48,1.7.69,2.64l.07.33c.15.6.17.87.27,1.25s.11.57.22,1.07a32.45,32.45,0,0,1,.63,5.55,61.88,61.88,0,0,1-.38,10.6v0a15.45,15.45,0,0,1-.93,4.88l-.4,1.15a23,23,0,0,1-2.68,5.31,20.26,20.26,0,0,1-1.42,1.89l-1,1.18a36,36,0,0,0-.8-19.83,27.89,27.89,0,0,0,.12-4.48,31.46,31.46,0,0,0-.45-4.52,30,30,0,0,0-1.15-4.36c-1-2.8-2.18-5.43-3.32-8a36.78,36.78,0,0,1-2.6-8,16.82,16.82,0,0,1-.17-5.16l.36-2,.06-.13,2.16-2.42,3.57,6.46a22,22,0,0,0,1.73-5.09c8.2-40.69-54.28-67.16-57.11-109.49-7.62,47.79,67.72,83.2,41.84,126.86a34.56,34.56,0,0,0-21-7h0a35.45,35.45,0,0,0-5.94.5q-2.85-2.32-5.86-4.36c-.85-.58-1.71-1.16-2.59-1.71S99.92,141,99,140.46c-1.75-1-3.49-2.08-5.22-3.13-3.5-2.07-6.93-4.26-10.34-6.47l0,0a14.67,14.67,0,0,1-5.7-7.35c-7.41-21.6.74-45.6,12.1-64.69-13.16,17.41-37.93,54.69-12,70a14.55,14.55,0,0,1,2.46,1.9c.65.6,1.31,1.18,2,1.76,3.11,2.72,6.38,5.21,9.67,7.68,1.66,1.21,3.34,2.39,5,3.56l1.24.85,1.15.9,2.38,1.88c.94.75,1.87,1.52,2.8,2.29a34.37,34.37,0,0,0-13,8.18,60.88,60.88,0,0,0-4.14,4.57c-1.42-.56-2.84-1.11-4.24-1.69a79.29,79.29,0,0,1-12.24-5.86,36.68,36.68,0,0,1-5.3-3.89A27.39,27.39,0,0,1,61.44,146a24.2,24.2,0,0,1-2.69-5.84,27.45,27.45,0,0,1-1.14-6.43c-.19-4.43.5-9.07.46-13.84A23.94,23.94,0,0,0,57,112.85a15.79,15.79,0,0,0-3.67-6,17.16,17.16,0,0,1,2.59,6.31,23.7,23.7,0,0,1,.21,6.73c-.4,4.53-1.53,9.07-1.62,14l0,1.84.16,1.86c.06.62.21,1.21.31,1.82a16.09,16.09,0,0,0,.4,1.8,27.47,27.47,0,0,0,2.85,6.9A29.28,29.28,0,0,0,63,153.81a41.28,41.28,0,0,0,5.86,4.42,87.31,87.31,0,0,0,16.29,7.15,36.93,36.93,0,0,0-6,13.4q-2.64-1.67-5.36-3.21c-1.79-1.18-3.52-2.14-5.25-3.11s-3.44-1.93-5.07-3a37.22,37.22,0,0,1-4.52-3.34,8.87,8.87,0,0,1-2.81-3.86v-.05c0-.09-.06-.18-.1-.27-1.52-3.35-3.07-6.66-4.42-10a73.27,73.27,0,0,1-3.35-10.27,47.67,47.67,0,0,1-1-5.29A53.83,53.83,0,0,1,47,131a71.45,71.45,0,0,1,.86-11,48.93,48.93,0,0,0-2.54,10.88,39.31,39.31,0,0,0-.29,6.43,11.26,11.26,0,0,1-1.4-2.62,13,13,0,0,1-.78-3.65,30.32,30.32,0,0,1-.06-3.82l.15-4v-.15a46.18,46.18,0,0,0-2.16-12.67,18.6,18.6,0,0,0-3.14-5.68A13,13,0,0,0,32.47,101l-.13.27a12.88,12.88,0,0,1,4.43,4.15,18.69,18.69,0,0,1,2.37,5.55,32,32,0,0,1,.92,6,48.37,48.37,0,0,1,0,6,25.23,25.23,0,0,0-.41,4.2,17.55,17.55,0,0,0,.49,4.35A11.58,11.58,0,0,0,42,135.61a8.51,8.51,0,0,0,3,2.54c.08,1.36.19,2.72.39,4.07a60.69,60.69,0,0,0,2.82,11c.17.48.35,1,.52,1.43-1.35-1.28-2.72-2.55-4.11-3.79-1.65-1.48-3.32-2.93-4.89-4.41a22.27,22.27,0,0,1-4.06-4.58A18.83,18.83,0,0,1,33.88,136c-.41-2.13-.72-4.32-1.08-6.5-.72-4.37-1.52-8.74-2.52-13.06,0,1.59.13,3.18.21,4.76-.29-.68-.58-1.35-.9-2-.42-1-1-1.84-1.49-2.77a29.8,29.8,0,0,0-1.83-2.7A31.81,31.81,0,0,0,24,111.33a17.93,17.93,0,0,0-2.61-2,16.28,16.28,0,0,0-2.94-1.5,22.34,22.34,0,0,0-3.13-.88l-.1.18a36.16,36.16,0,0,1,5.17,3.42A29.68,29.68,0,0,1,24.7,115c1.3,1.6,2.42,3.35,3.57,5.08l1.87,2.87a3.23,3.23,0,0,1,.5,1.57c.09,1.74.18,3.47.25,5.21.12,2.21.24,4.42.44,6.67A19.59,19.59,0,0,0,33,143.28a21.54,21.54,0,0,0,4.21,5.48c-1.7-1.17-3.38-2.38-5-3.65a29.83,29.83,0,0,1-3.07-2.84,8.88,8.88,0,0,1-2-3.12l0-.13c-.61-1.62-1.27-3.22-2-4.8s-1.43-3.13-2.19-4.67a82.19,82.19,0,0,0-5.09-9c1.34,3.16,2.52,6.35,3.67,9.55.27.76.53,1.53.78,2.29a28.3,28.3,0,0,0-2.52-3.31,28.69,28.69,0,0,0-3.59-3.37,18.29,18.29,0,0,0-4.44-2.61,17.79,17.79,0,0,0,2.1,4.7,27.43,27.43,0,0,0,3,4,27.92,27.92,0,0,0,3.58,3.37,21,21,0,0,0,2.75,1.8,2,2,0,0,1,1,1.21c.16.55.32,1.1.47,1.65l0-.13a10.68,10.68,0,0,0,2.32,4.48,32,32,0,0,0,3.18,3.38,73.37,73.37,0,0,0,7.07,5.61c2.41,1.76,4.9,3.38,7.38,5l3.7,2.38c1.19.78,2.46,1.63,3.39,2.38l.09.06a1.86,1.86,0,0,0,.57.31l.1.24a12.71,12.71,0,0,0,3.82,5.6,33.63,33.63,0,0,0,5.12,3.72c1.76,1.08,3.54,2.06,5.31,3s3.56,1.82,5.14,2.78l.08,0,0,0c2.23,1.13,4.43,2.33,6.63,3.54-1.09,10,2.36,20.31,8,31.51a132,132,0,0,0,24.78,34.11l4.85,4.85,4.85-4.85a132,132,0,0,0,24.78-34.11,86.54,86.54,0,0,0,6.78-17.26c4.15-2.88,9.84-7.06,12.32-10.33,2.26-2.32,4.54-4.67,6.74-7.11a86.3,86.3,0,0,0,6.29-7.72,38.7,38.7,0,0,0,2.7-4.37,17.19,17.19,0,0,0,1.06-2.51,7.79,7.79,0,0,0,.41-3c0-.9,0-1.8,0-2.7a1.14,1.14,0,0,1,.27-.69,27.41,27.41,0,0,0,1.88-2.48,36.18,36.18,0,0,0,2.46-4.26,35.47,35.47,0,0,0,1.87-4.54,22.45,22.45,0,0,0,1.11-4.92A22.87,22.87,0,0,0,186.46,145.72Zm-44.88,11.59,3-4.82c.2.65.41,1.3.62,1.94.15.43.31.85.46,1.28v.07a1,1,0,0,1,.07.37,3.23,3.23,0,0,1,0,.44,5,5,0,0,1-.13.84c-.13.6-.28,1.19-.41,1.78L145,160c-.17.61-.37,1.19-.56,1.79-1-1.21-2.12-2.43-3.33-3.64Zm-.27,54.2a127,127,0,0,1-23.85,32.81l-1.31,1.32-1.32-1.32A126.94,126.94,0,0,1,91,211.51c-9.51-18.95-12.14-33.95,4.08-50.17a29.56,29.56,0,0,1,21.05-8.68h0a29.53,29.53,0,0,1,21,8.68C153.45,177.56,150.81,192.56,141.31,211.51Zm5-47.39c.06-.27.14-.55.19-.83a17.36,17.36,0,0,0,.26-1.76,18.76,18.76,0,0,0,.11-2.11c0-.12,0-.23,0-.35,1.26,3.55,2.65,7,3,10.6A45.68,45.68,0,0,0,146.27,164.12Z"/>
      <path d="M77.46,149a18,18,0,0,0-4.82,3.25l.07.29c1.79-.38,3.56-.78,5.33-1.21a49.75,49.75,0,0,1,5.32-1.1c1.77-.25,3.61-.33,5.42-.51s3.63-.31,5.44-.5l0-.3a18.28,18.28,0,0,0-5.6-1.59A22.61,22.61,0,0,0,83,147.3a17.78,17.78,0,0,0-1.9.39l-.06-.43,0-.12-.14-.24-.12-.23c-.33-.6-.72-1.16-1.1-1.73a22.22,22.22,0,0,0-2.7-3.12,38.28,38.28,0,0,0-3.1-2.57c-1-.78-2-1.56-3-2.36l-1.49-1.22c-.45-.39-.92-.77-1.36-1.18a35.07,35.07,0,0,1-2.55-2.61c-.82-.92-1.61-1.89-2.38-2.91-.38-.51-.76-1-1.14-1.55a8.43,8.43,0,0,1-.48-.75,2.93,2.93,0,0,1-.19-.4l-.1-.38v0c-.06-.4-.12-.8-.21-1.21-.17.38-.32.76-.47,1.14v0a5,5,0,0,0-.14.61,3.44,3.44,0,0,0,0,.56,5.39,5.39,0,0,0,.16,1.11,16.83,16.83,0,0,0,.54,2,20.25,20.25,0,0,0,1.74,3.79,20,20,0,0,0,2.52,3.39,18.06,18.06,0,0,0,1.54,1.49c.49.42,1,.87,1.54,1.29a35.13,35.13,0,0,0,3.35,2.33c1.2.74,2.27,1.26,3.35,1.93s2.16,1.32,3.25,2c.55.35,1.07.74,1.63,1.1l.21.14.05,0h0l-.08-.12h0l.07.1.21.28L80,148A22.56,22.56,0,0,0,77.46,149Z"/>
    </g>
    <path d="M115.85,204.67a18.28,18.28,0,1,1,18.28-18.28A18.3,18.3,0,0,1,115.85,204.67Zm0-31.56a13.28,13.28,0,1,0,13.28,13.28A13.3,13.3,0,0,0,115.85,173.11Z" style="fill: #1d1d1b"/>
  </g>
</svg>
