<svg id="Lager_1" data-name="Lager 1" xmlns="http://www.w3.org/2000/svg" width="218.09" height="257.66" viewBox="0 0 218.09 257.66">
  <g id="haire">
    <path id="haire_left" data-name="haire left" d="M85.51,51.67c-17.07,16-35.73,35.64-22,60.11C59.28,89,73.82,68.52,85.51,51.67Z" fill="#fff"/>
    <path id="haire_right" data-name="haire right" d="M127.45,0c51.1,10.14,70.84,67.17,60.26,113.61-2.12-17.39-6.61-35-16.42-49.7,11.47,26.36,10.09,54.28,7.56,81.94C220.27,96.15,199.29,3.15,127.45,0Z" fill="#fff"/>
    <path id="haire_left-2" data-name="haire left-2" d="M100.79,1.37C73.37,9.59,50.39,43.43,59.47,71.46,62.19,43.19,78.18,18.1,100.79,1.37Z" fill="#fff"/>
    <path id="haire_middle" data-name="haire middle" d="M103.68,14c-6.14,48.45,53.16,67,63.49,109.57C166.5,75.41,113.76,59.42,103.68,14Z" fill="#fff"/>
    <path id="middle_haire_fingers" data-name="middle haire fingers" d="M153.63,146.63l.07-.14,2.32-2.6,3.84,7a24,24,0,0,0,1.87-5.47c8.82-43.81-58.44-72.31-61.49-117.88-8.74,54.88,84.15,94.6,38,146.11a38.45,38.45,0,0,1-4.38,4.18h0a1.46,1.46,0,0,1-2-.25,1.41,1.41,0,0,1-.22-.4,33.34,33.34,0,0,0-2.48-5.48,47.39,47.39,0,0,0-8.6-10.87A78.86,78.86,0,0,0,110,152.37c-.92-.63-1.84-1.25-2.79-1.84s-2-1.21-2.91-1.76c-1.89-1.1-3.76-2.24-5.63-3.37-3.76-2.23-7.45-4.58-11.12-7h0a15.83,15.83,0,0,1-6.14-7.91c-8-23.25.8-49.09,13-69.63-14.17,18.73-40.83,58.87-12.93,75.35a15.61,15.61,0,0,1,2.65,2c.7.65,1.41,1.28,2.14,1.9,3.34,2.92,6.86,5.61,10.4,8.26,1.79,1.31,3.6,2.58,5.43,3.84l1.33.91,1.24,1,2.56,2a115.5,115.5,0,0,1,9.63,8.47c6,5.93,10.82,12.93,12,21a20.09,20.09,0,0,1,.32,3l.16,3.3c.13,2.22.35,4.46.68,6.7a35.64,35.64,0,0,0,1.66,6.6A18.09,18.09,0,0,0,135,211c-1.87-4.07-2.24-8.41-2.22-12.72l.28-1.69a46.51,46.51,0,0,1,1.94-6.42,52.56,52.56,0,0,1,7.56-12.11c1-1.31,5.17-7.18,5.87-8.65l4.8-7.81c.21.7.44,1.4.67,2.09l.49,1.38v0h0a1.41,1.41,0,0,1,.07.41,3.53,3.53,0,0,1,0,.46,5.56,5.56,0,0,1-.14.91c-.14.65-.3,1.29-.45,1.92-.32,1.27-.71,2.5-1.13,3.72a37.26,37.26,0,0,1-1.46,3.52c-.54,1.14-1.16,2.18-1.85,3.35s-1.34,2.23-2,3.33-1.43,2.16-2.16,3.39a25,25,0,0,0-3,7.7h0c-.07.56-.12,1.12-.15,1.69.3-.49.57-1,.83-1.48h0a62.84,62.84,0,0,1,4.55-6.44c.78-1,1.71-2,2.51-3.16s1.57-2.26,2.27-3.45a26.44,26.44,0,0,0,1.89-3.76,23,23,0,0,0,1.16-4.07,22.39,22.39,0,0,0,.39-4.17v-.37c1.46,4.11,3.1,8.1,3.32,12.34,0,4.32.8,4.46-1.15,10.55-1.19,3.69-3,4.75-7.37,9.23,5-3.72,5.77-3.79,7.53-5.85,1.38-1.61,1.77-2.27,2.58-5.33a23.81,23.81,0,0,0,1-8.64,30.51,30.51,0,0,0-1.72-9.56c-1.07-3-2.35-5.85-3.58-8.64a40.27,40.27,0,0,1-2.8-8.56,18.51,18.51,0,0,1-.18-5.56Z" fill="#fff"/>
  </g>
  <g id="face_details" data-name="face details">
    <path id="eye" d="M78.29,98.07A37.89,37.89,0,0,0,92.61,93.8c6.78-2,13.75,4.6,15.82,10.65-4.4-.55-8.26,2.33-12.57,2.63C88.11,108.73,85.05,99.67,78.29,98.07Z" fill="#fff"/>
    <path id="lip_top" data-name="lip top" d="M107.56,145.38c3.42-.92,7.62-6.59,11.2-4.41a3.12,3.12,0,0,0,4.16.16c3.09-2.21,7.07,2.12,9.68,3.62,1.27.87,3.07.87,4,2.3-2.67,1.43-5.56,1.13-8.65.16-.56-.17-4.55-.13-6.89-.16-2.79,0-4.15-.14-5.9.32-3.71,1-6.55,2.53-9.13-1.52A4.85,4.85,0,0,0,107.56,145.38Z" fill="#fff"/>
    <path id="lip_bottom" data-name="lip bottom" d="M111.31,151.48c4.1,4.61,13.29,7.25,17.7,1.84a26.07,26.07,0,0,1,3-2c.88-1.12-3.21-1.72-4-1.76C125.18,150.05,111.23,148,111.31,151.48Z" fill="#fff"/>
    <path id="nose_hole" data-name="nose hole" d="M115.46,132.81h.89a4.4,4.4,0,0,0,.51-.05l1.79-.24-2.59-1.27a5.08,5.08,0,0,0-1.32-.42l-.39-.07a4.48,4.48,0,0,0-2.58.32l-.14.07.59.48a5.18,5.18,0,0,0,1.2.76A4.64,4.64,0,0,0,115.46,132.81Z" fill="#fff"/>
    <path id="eyebrow" d="M106,88.79C105.55,81,90.46,76.85,84.39,81c4.19.25,10.46.56,13.91,3.07C100.79,85.87,102.73,93.93,106,88.79Z" fill="#fff"/>
  </g>
  <g id="right_hand_fingers" data-name="right hand fingers">
    <path d="M198.33,154.41a39,39,0,0,0-4.56,9.19c0-1,.07-2,.13-3.07.22-3.65.48-7.31.87-11a84.51,84.51,0,0,0-2.93,10.72c-.37,1.82-.75,3.64-1,5.48s-.53,3.68-.72,5.55v.18a9.36,9.36,0,0,1-1.55,3.86,34.77,34.77,0,0,1-2.93,4c-1.51,1.82-3.13,3.6-4.8,5.35a33.51,33.51,0,0,0,2.83-5.53,17.24,17.24,0,0,0,1-4,23.27,23.27,0,0,0,.13-4,64.46,64.46,0,0,0-.93-7.59c-.39-2.13-.8-4.24-1.25-6.34v-.13a36.14,36.14,0,0,0,2.49-4.78c.48-1,.88-2.05,1.31-3.08s.76-2,1.2-3,.83-2,1.29-2.91.91-1.88,1.38-2.84a29.31,29.31,0,0,1,1.59-2.82,33.55,33.55,0,0,0,1.65-3l-.15-.15a40.09,40.09,0,0,0-4.48,5,32.22,32.22,0,0,0-3.26,5.89c-.86,2.09-1.48,4.24-2.14,6.38l-1.17,3.95q-.75-3.45-1.6-6.88c.09,5,.45,10,.64,15s.46,9.94-1.46,13.81a42.35,42.35,0,0,1-3.8,5.93q-1.5,2.08-3,4.22a39.91,39.91,0,0,0-.23-7.88,32.53,32.53,0,0,0-.95-4.57v0a9.39,9.39,0,0,0,2.19-3.3,12.35,12.35,0,0,0,.74-4.78,19.38,19.38,0,0,0-.75-4.66,27.71,27.71,0,0,0-1.64-4.22,54.18,54.18,0,0,1-1.76-6.25,34.78,34.78,0,0,1-.79-6.51,20.34,20.34,0,0,1,.85-6.44,13.87,13.87,0,0,1,3.4-5.58l-.22-.24a13.87,13.87,0,0,0-4.23,5.42,19.67,19.67,0,0,0-1.61,6.79,49.45,49.45,0,0,0,1.43,13.76v.15l1.31,4.09a32.69,32.69,0,0,1,1.05,4,14.14,14.14,0,0,1,.24,4,11.31,11.31,0,0,1-.58,2.76h0a1.17,1.17,0,0,0-.12-.39c-.77-1.94-1.39-3.86-2.16-5.73a53,53,0,0,0-5.75-10.56,75.82,75.82,0,0,1,4,11.14c.26,1,.53,1.83.76,2.84l.07.35c.16.65.18.94.28,1.35s.13.61.24,1.15a33.62,33.62,0,0,1,.68,6,66.9,66.9,0,0,1-.4,11.41h0a16.84,16.84,0,0,1-1,5.25l-.44,1.23a24.63,24.63,0,0,1-2.88,5.73,24,24,0,0,1-1.53,2l-4.07,4.84c4.27-2.9,12.6-8.62,15.83-12.88,2.44-2.5,4.89-5,7.26-7.66a89.77,89.77,0,0,0,6.77-8.3,40,40,0,0,0,2.91-4.71,18.83,18.83,0,0,0,1.14-2.7,8.34,8.34,0,0,0,.44-3.25v-2.91a1.15,1.15,0,0,1,.29-.75,27.17,27.17,0,0,0,2-2.66,36.5,36.5,0,0,0,2.64-4.58,40.77,40.77,0,0,0,2-4.89,23.51,23.51,0,0,0,1.19-5.3A24.17,24.17,0,0,0,198.33,154.41Z" fill="#fff"/>
  </g>
  <g id="left_hand_fingers" data-name="left hand fingers">
    <path id="left_hand_small_finger_line" data-name="left hand small finger line" d="M124.89,194.21A36.69,36.69,0,0,0,119.6,189a42.17,42.17,0,0,0-6.16-4,61.38,61.38,0,0,0-6.67-3.14c-2.27-.94-4.57-1.82-6.92-2.63-9.33-3.31-19.13-6-28.15-11.33a45.06,45.06,0,0,1-6.32-4.76,31.38,31.38,0,0,1-5.1-6.21,30.12,30.12,0,0,1-3.07-7.42,16.11,16.11,0,0,1-.42-1.95c-.11-.65-.28-1.29-.34-2l-.17-2v-2c.09-5.26,1.31-10.15,1.74-15a25.53,25.53,0,0,0-.22-7.25,18.44,18.44,0,0,0-2.8-6.78A17.11,17.11,0,0,1,58.93,119a26,26,0,0,1,1.18,7.63c0,5.14-.7,10.13-.49,14.9a29.55,29.55,0,0,0,1.22,6.92,26.58,26.58,0,0,0,2.9,6.29,30.16,30.16,0,0,0,4.5,5.27,39.54,39.54,0,0,0,5.7,4.18,87.1,87.1,0,0,0,13.18,6.31c4.58,1.89,9.31,3.56,13.94,5.57a76,76,0,0,1,13.48,7.1,39.44,39.44,0,0,1,5.86,4.93A29.88,29.88,0,0,1,124.89,194.21Z" fill="#fff"/>
    <path id="left_hand_fingers-2" data-name="left hand fingers-2" d="M100,202.89c-2.34-2.11-4.78-4.12-7.29-6s-5.1-3.73-7.74-5.47-5.27-3.32-8-4.85c-1.92-1.27-3.78-2.31-5.64-3.35s-3.7-2.07-5.46-3.19A39.15,39.15,0,0,1,61,176.41a9.58,9.58,0,0,1-3-4.16v-.05a.91.91,0,0,0-.11-.3c-1.63-3.6-3.3-7.16-4.76-10.78a79.24,79.24,0,0,1-3.61-11.05,54.79,54.79,0,0,1-1-5.7c-.2-1.92-.3-3.87-.31-5.83a75.42,75.42,0,0,1,.93-11.81,52.21,52.21,0,0,0-2.74,11.71,43.24,43.24,0,0,0-.31,6.92,11.76,11.76,0,0,1-1.5-2.82,14,14,0,0,1-.85-3.93,35.4,35.4,0,0,1-.06-4.12l.16-4.28v-.16a50.19,50.19,0,0,0-2.32-13.64,20.1,20.1,0,0,0-3.38-6.11,13.91,13.91,0,0,0-5.54-4.08l-.14.29A13.92,13.92,0,0,1,37.19,111a20.5,20.5,0,0,1,2.54,6,33.74,33.74,0,0,1,1,6.48,54,54,0,0,1,0,6.49,27.34,27.34,0,0,0-.44,4.51,19,19,0,0,0,.53,4.69,12.37,12.37,0,0,0,2,4.4,9.12,9.12,0,0,0,3.28,2.73c.07,1.47.2,2.94.41,4.39a66,66,0,0,0,3,11.81c.18.52.37,1,.56,1.54-1.46-1.38-2.93-2.75-4.43-4.08-1.77-1.6-3.57-3.16-5.26-4.75a23.91,23.91,0,0,1-4.38-5A20.63,20.63,0,0,1,34,144c-.43-2.3-.76-4.66-1.15-7-.77-4.7-1.64-9.41-2.72-14.06.06,1.72.15,3.42.23,5.13-.31-.73-.63-1.45-1-2.16-.45-1-1.06-2-1.6-3a31.77,31.77,0,0,0-2-2.9,30.8,30.8,0,0,0-2.39-2.59,19.88,19.88,0,0,0-2.81-2.2,17.22,17.22,0,0,0-3.17-1.62,22.93,22.93,0,0,0-3.36-.94l-.11.18a40.31,40.31,0,0,1,5.56,3.69,31.78,31.78,0,0,1,4.6,4.82c1.4,1.72,2.6,3.61,3.84,5.47l2,3.09a3.51,3.51,0,0,1,.54,1.69q.15,2.81.27,5.61c.13,2.38.25,4.76.47,7.18A21.41,21.41,0,0,0,33,151.78a23.3,23.3,0,0,0,4.54,5.9c-1.84-1.27-3.65-2.57-5.36-3.94A31.48,31.48,0,0,1,29,150.69a9.64,9.64,0,0,1-2.16-3.36v-.14c-.66-1.75-1.37-3.46-2.11-5.16s-1.54-3.37-2.36-5a86.37,86.37,0,0,0-5.48-9.64c1.44,3.4,2.72,6.84,4,10.28.29.82.57,1.65.85,2.47A31.41,31.41,0,0,0,19,136.57a30.25,30.25,0,0,0-4-3.65,19.31,19.31,0,0,0-4.78-2.81,19.19,19.19,0,0,0,2.27,5.06,29.81,29.81,0,0,0,3.17,4.24,28.83,28.83,0,0,0,3.9,3.59,21.44,21.44,0,0,0,3,2,2.16,2.16,0,0,1,1.08,1.29c.17.59.34,1.19.5,1.78v-.14a11.68,11.68,0,0,0,2.49,4.83A36,36,0,0,0,30,156.38a79.19,79.19,0,0,0,7.61,6.05c2.6,1.88,5.27,3.63,8,5.34l4,2.57c1.28.84,2.65,1.76,3.65,2.55l.09.08a2.4,2.4,0,0,0,.61.33l.12.26a13.85,13.85,0,0,0,4.11,6,34.88,34.88,0,0,0,5.51,4c1.89,1.17,3.81,2.22,5.71,3.24s3.84,2,5.53,3l.1.06H75c2.76,1.39,5.47,2.88,8.18,4.38s5.36,3.11,8,4.73,5.25,3.33,7.83,5.08,5.12,3.57,7.64,5.44C104.56,207.22,102.32,205,100,202.89Z" fill="#fff"/>
    <path id="left_hand_thumb_line" data-name="left hand thumb line" d="M99,157.89a19.93,19.93,0,0,0-6-1.71,24.26,24.26,0,0,0-6.08-.08,17.76,17.76,0,0,0-2,.43l-.07-.47v-.13l-.15-.26-.13-.24c-.35-.65-.77-1.25-1.18-1.87a24.28,24.28,0,0,0-2.9-3.35,37,37,0,0,0-3.35-2.77C76,146.6,75,145.76,73.9,144.9l-1.6-1.32c-.5-.41-1-.82-1.47-1.26a36.34,36.34,0,0,1-2.74-2.81,38.36,38.36,0,0,1-2.56-3.14c-.42-.54-.83-1.1-1.24-1.67a6.75,6.75,0,0,1-.51-.8,3.55,3.55,0,0,1-.21-.44l-.11-.4h0c-.07-.44-.14-.87-.23-1.31-.18.41-.35.82-.51,1.22h0a5.28,5.28,0,0,0-.16.66c0,.2,0,.41,0,.61a4.83,4.83,0,0,0,.18,1.19,16.4,16.4,0,0,0,.58,2.16,20.52,20.52,0,0,0,1.87,4.07,21.53,21.53,0,0,0,2.71,3.66,20.78,20.78,0,0,0,1.66,1.59,18.23,18.23,0,0,0,1.66,1.39,35.65,35.65,0,0,0,3.6,2.51c1.29.8,2.45,1.36,3.61,2.08s2.32,1.43,3.49,2.19c.6.37,1.16.79,1.76,1.18l.22.15H84l-.08-.13h0l.08.11.23.3a1.39,1.39,0,0,0-.43.12A25.79,25.79,0,0,0,81,158a19.46,19.46,0,0,0-5.19,3.51l.07.31q2.88-.62,5.74-1.3a52.77,52.77,0,0,1,5.72-1.19c1.92-.26,3.89-.36,5.84-.54s3.91-.34,5.86-.55Z" fill="#fff"/>
  </g>
  <g id="left_nails" data-name="left nails">
    <path id="left_nail_small" data-name="left nail small" d="M55.92,108.29c.16-2.15-.79-6.13-2.57-7.16a1.43,1.43,0,0,0-1.83.51c-3.23,4.32-3.42,17-2.84,22.35.39,4,4.74,3.05,6.07.31C56.5,120.62,55.8,112.41,55.92,108.29Z" fill="#fff"/>
    <path id="left_nail_middle" data-name="left nail middle" d="M34.28,113.66c.07-2.74-1.9-13.89-4.88-17a2,2,0,0,0-1.58-.56c-.59,0-.89.25-1.46,1.13a48,48,0,0,0-1.18,5.18C23.72,110.93,31.67,134.17,34.28,113.66Z" fill="#fff"/>
    <path id="left_nail_ring" data-name="left nail ring" d="M20.78,121c-1.92-4.62-5.89-12.12-10.3-15.24-12.36-6.73,2.24,15.55,2.64,18C15.66,128.52,22.59,126.66,20.78,121Z" fill="#fff"/>
    <path id="left_nail_pont" data-name="left nail pont" d="M8.19,117.78c-1.19-1.39-2.25-2.49-3.13-3.41C3.44,112.68.71,111,.2,111.8c-1.39,2.28,4.74,15,9.7,17.65a1.68,1.68,0,0,0,1.57,0c1.95-1,2.22-3,1.16-5.12A33,33,0,0,0,8.19,117.78Z" fill="#fff"/>
  </g>
  <g id="right_nails" data-name="right nails">
    <path id="right_nail_point" data-name="right nail point" d="M206.4,129.94a.93.93,0,0,0-.84-.26c-1.18.22-2.83,2.57-3.58,4.09-.52,1.06-1.18,2.39-1.88,4h0a34.46,34.46,0,0,0-2.26,7.43,5.24,5.24,0,0,0,.5,3.72,3.24,3.24,0,0,0,2.16,1.49h.39a2,2,0,0,0,1.44-.64c3-3.13,4.89-12.08,4.86-16.62C207.17,131.53,206.92,130.46,206.4,129.94Z" fill="#fff"/>
    <path id="right_nail_middle" data-name="right nail middle" d="M200.07,123.83c-6.67-.15-9.81,18.59-10.17,21.13-.78,5.56,5.11,5.66,6.78.65C198.44,140.33,202.46,125,200.07,123.83Z" fill="#fff"/>
    <path id="right_nail_ring" data-name="right nail ring" d="M179.8,131.23s-2-7.06-2.45-7.46a2,2,0,0,0-1.92-.67,2.1,2.1,0,0,0-1.42,1c-1.74,3.28-.57,16.09.12,18.33v0c2.22,5.27,3.61,6,4.46,6.1h.17a1.66,1.66,0,0,0,1.38-.81C182,145.22,181.43,135.83,179.8,131.23Z" fill="#fff"/>
    <path id="right_nail_small" data-name="right nail small" d="M163.25,155.66c-.28-3.29-3.24-15.6-7.09-18.44a1.86,1.86,0,0,0-2.26,0c-1.55,1.26-1.78,4.53-1.25,6.25.17.7,1.35,4,1.54,4.94.62,3.19,1.39,7.16,3.05,9.05a4.12,4.12,0,0,0,2.83,1.28,3.39,3.39,0,0,0,1.69-.29A2.6,2.6,0,0,0,163.25,155.66Z" fill="#fff"/>
  </g>
  <g>
    <path d="M39.41,257.39H26.88V218.73h4.64v34.34h7.89Z" fill="#fff"/>
    <path d="M57.44,225.1v32.29H52.8v-13.6H48.32v13.6H43.67V225.1a6.67,6.67,0,0,1,2-4.88,6.46,6.46,0,0,1,4.79-2,6.77,6.77,0,0,1,4.95,2A6.63,6.63,0,0,1,57.44,225.1Zm-8.21-9.66H44.1v-5.13h5.13Zm3.57,24V225a2.31,2.31,0,0,0-.64-1.59,2.25,2.25,0,0,0-3.18,0l0,0a2.2,2.2,0,0,0-.64,1.59v14.48Zm5-24H52.69v-5.13h5.13Z" fill="#fff"/>
    <path d="M76.4,250.75a6.71,6.71,0,0,1-2,4.89,6.52,6.52,0,0,1-4.81,2,6.82,6.82,0,0,1-5-2,6.57,6.57,0,0,1-2.05-4.88V225.42a6.67,6.67,0,0,1,2-4.88,6.74,6.74,0,0,1,4.91-2,6.88,6.88,0,0,1,6.89,6.87v18.78H71.75V225.31a2.28,2.28,0,0,0-3.89-1.59,2.2,2.2,0,0,0-.64,1.59v25.55a2.25,2.25,0,0,0,2.23,2.27h0a2.16,2.16,0,0,0,1.62-.68,2.2,2.2,0,0,0,.65-1.59v-1.73H76.4Z" fill="#fff"/>
    <path d="M94.92,257.39H90.27V243.62A2.2,2.2,0,0,0,88,241.36H86.28v16H81.63V218.78h4.65v18h1.79a2.11,2.11,0,0,0,1.55-.67,2.31,2.31,0,0,0,.65-1.65V218.78h4.65v15.7a4.76,4.76,0,0,1-2.81,4.58,4.17,4.17,0,0,1,2,1.89,5.53,5.53,0,0,1,.82,2.8Z" fill="#fff"/>
    <path d="M114.41,233.58a5,5,0,0,1-.85,2.75,4,4,0,0,1-2.23,1.79,4.52,4.52,0,0,1,3.08,4.53v14.74h-4.54V242.44a2,2,0,0,0-1.71-2.25,1.94,1.94,0,0,0-.34,0h-2.54v17.22h-4.64V218.73h6.89a6.92,6.92,0,0,1,6.88,6.91Zm-4.54-.11v-7.94a2.16,2.16,0,0,0-.67-1.59,2.26,2.26,0,0,0-1.65-.67h-2.27v12.47h2.49a2.06,2.06,0,0,0,2.11-2A2.26,2.26,0,0,0,109.87,233.47Z" fill="#fff"/>
    <path d="M133.74,225.1v32.29H129.1v-13.6h-4.48v13.6H120V225.1a6.67,6.67,0,0,1,2-4.88,6.46,6.46,0,0,1,4.79-2,6.77,6.77,0,0,1,5,2A6.63,6.63,0,0,1,133.74,225.1Zm-4.64,14.37V225a2.31,2.31,0,0,0-.64-1.59,2.25,2.25,0,0,0-3.18,0l0,0a2.2,2.2,0,0,0-.64,1.59v14.48Z" fill="#fff"/>
    <path d="M163.44,257.39H158.8V243.62a2.23,2.23,0,0,0-.65-1.62,2.18,2.18,0,0,0-1.58-.64H154.8v16h-4.64V218.78h4.64v18h1.79a2.07,2.07,0,0,0,1.55-.67,2.26,2.26,0,0,0,.66-1.65V218.78h4.64v15.7a4.76,4.76,0,0,1-2.81,4.58,4.13,4.13,0,0,1,2,1.89,5.44,5.44,0,0,1,.82,2.8Z" fill="#fff"/>
    <path d="M180.56,257.39H168V218.73h4.64v34.34h7.89Z" fill="#fff"/>
    <path d="M198.54,250.76a6.67,6.67,0,0,1-2,4.88,6.57,6.57,0,0,1-4.86,2,6.82,6.82,0,0,1-4.94-2,6.57,6.57,0,0,1-2.08-4.88V225.42a6.63,6.63,0,0,1,2-4.88,6.94,6.94,0,0,1,11.84,4.88Zm-4.64.1V225.31a2.17,2.17,0,0,0-.68-1.59,2.22,2.22,0,0,0-1.59-.67,2.27,2.27,0,0,0-1.65.67,2.16,2.16,0,0,0-.67,1.59v25.55a2.12,2.12,0,0,0,.67,1.59,2.27,2.27,0,0,0,1.65.68,2.17,2.17,0,0,0,1.59-.68A2.13,2.13,0,0,0,193.9,250.86Z" fill="#fff"/>
    <path d="M218.09,233.58a5.09,5.09,0,0,1-.85,2.75,4,4,0,0,1-2.23,1.79,4.52,4.52,0,0,1,3.08,4.53v14.74h-4.54V242.44a2,2,0,0,0-1.71-2.25,1.94,1.94,0,0,0-.34,0H209v17.22h-4.64V218.73h6.88a6.91,6.91,0,0,1,6.89,6.91Zm-4.54-.11v-7.94a2.16,2.16,0,0,0-.67-1.59,2.26,2.26,0,0,0-1.65-.67H209v12.47h2.49a2.06,2.06,0,0,0,2.07-2.05A1.62,1.62,0,0,0,213.55,233.47Z" fill="#fff"/>
  </g>
</svg>
