<svg id="Lager_1" data-name="Lager 1" xmlns="http://www.w3.org/2000/svg" width="216" height="205" viewBox="0 0 216 205">
  <g id="haire">
    <path id="haire_left" data-name="haire left" d="M83.2,52.7C67.4,67.5,50,85.8,62.8,108.6,58.9,87.4,72.4,68.4,83.2,52.7Z" style="fill: #fff"/>
    <path id="haire_right" data-name="haire right" d="M122.2,4.7c47.5,9.4,65.8,62.4,56,105.5-2-16.1-6.1-32.5-15.3-46.2,10.7,24.5,9.4,50.4,7,76.1C208.4,94,188.9,7.7,122.2,4.7Z" style="fill: #fff"/>
    <path id="haire_left-2" data-name="haire left-2" d="M97.4,6C71.9,13.6,50.6,45.1,59,71.1,61.6,44.8,76.4,21.5,97.4,6Z" style="fill: #fff"/>
    <path id="haire_middle" data-name="haire middle" d="M100.1,17.7c-5.7,45,49.4,62.3,59,101.8C158.5,74.8,109.5,59.9,100.1,17.7Z" style="fill: #fff"/>
    <path id="middle_haire_fingers" data-name="middle haire fingers" d="M146.5,140.9a.09.09,0,0,1,.1-.1h0l2.2-2.4,3.6,6.5a18,18,0,0,0,1.7-5.1C162.3,99.1,99.8,72.6,97,30.3c-8.1,51,78.2,87.9,35.3,135.7a30.86,30.86,0,0,1-4.1,3.9h0a1.32,1.32,0,0,1-1.86-.17,1.14,1.14,0,0,1-.24-.43,28.85,28.85,0,0,0-2.3-5.1,43.45,43.45,0,0,0-8-10.1,91.76,91.76,0,0,0-9.8-7.9c-.9-.6-1.7-1.2-2.6-1.7s-1.8-1.1-2.7-1.6c-1.8-1-3.5-2.1-5.2-3.1-3.5-2.1-6.9-4.3-10.3-6.5h0a14.66,14.66,0,0,1-5.7-7.3c-7.4-21.6.7-45.6,12.1-64.7-13.2,17.4-37.9,54.7-12,70a14.46,14.46,0,0,1,2.5,1.9c.7.6,1.3,1.2,2,1.8,3.1,2.7,6.4,5.2,9.7,7.7,1.7,1.2,3.3,2.4,5,3.6l1.2.8,1.2.9,2.4,1.9a96.77,96.77,0,0,1,8.9,7.9c5.5,5.5,10.1,12,11.2,19.5a13.19,13.19,0,0,1,.3,2.8l.1,3.1c.1,2.1.3,4.1.6,6.2a32,32,0,0,0,1.5,6.1,16.82,16.82,0,0,0,3.1,5.4,28.38,28.38,0,0,1-2.1-11.8c.1-.4.2-1.1.3-1.6a41.82,41.82,0,0,1,1.8-6,50.28,50.28,0,0,1,7-11.3c.9-1.2,4.8-6.7,5.4-8l4.5-7.3c.2.7.4,1.3.6,1.9a6.84,6.84,0,0,0,.5,1.3h0c0,.1.1.3.1.4v.4c0,.3-.1.5-.1.8-.1.6-.3,1.2-.4,1.8-.3,1.2-.7,2.3-1.1,3.5a32.35,32.35,0,0,1-1.3,3.3c-.5,1.1-1.1,2-1.7,3.1a32.07,32.07,0,0,1-1.9,3.1c-.7,1-1.3,2-2,3.1a23.6,23.6,0,0,0-2.8,7.2h0a7.78,7.78,0,0,0-.1,1.6c.3-.5.5-.9.8-1.4h0a63.87,63.87,0,0,1,4.2-6c.7-.9,1.6-1.9,2.3-2.9a22.06,22.06,0,0,0,2.1-3.2,38.51,38.51,0,0,0,1.8-3.5,23.63,23.63,0,0,0,1.1-3.8,17,17,0,0,0,.4-3.9v-.3c1.4,3.8,2.9,7.5,3.1,11.5,0,4,.7,4.1-1.1,9.8-1.1,3.4-2.8,4.4-6.8,8.6,4.6-3.5,5.4-3.5,7-5.4,1.3-1.5,1.6-2.1,2.4-5a24,24,0,0,0,.9-8,34,34,0,0,0-.5-4.5c-.3-1.5-.7-2.9-1.1-4.4-1-2.8-2.2-5.4-3.3-8a37.41,37.41,0,0,1-2.6-8,17.78,17.78,0,0,1-.2-5.2Z" style="fill: #fff"/>
  </g>
  <g id="face_details" data-name="face details">
    <path id="eye" d="M76.5,95.8a34.91,34.91,0,0,0,13.3-4c6.3-1.9,12.8,4.3,14.7,9.9-4.1-.5-7.7,2.2-11.7,2.4C85.6,105.7,82.8,97.3,76.5,95.8Z" style="fill: #fff"/>
    <path id="lip_top" data-name="lip top" d="M103.7,139.8c3.2-.9,7.1-6.1,10.4-4.1a2.91,2.91,0,0,0,3.9.1c2.9-2.1,6.6,2,9,3.4,1.2.8,2.8.8,3.7,2.1-2.5,1.3-5.2,1.1-8,.2-.5-.2-4.2-.1-6.4-.2a22,22,0,0,0-5.5.3c-3.4.9-6.1,2.3-8.5-1.4A7.47,7.47,0,0,0,103.7,139.8Z" style="fill: #fff"/>
    <path id="lip_bottom" data-name="lip bottom" d="M107.2,145.4c3.8,4.3,12.3,6.7,16.4,1.7.4-.4,2.3-1.5,2.8-1.9.8-1-3-1.6-3.7-1.6C120.1,144.1,107.1,142.2,107.2,145.4Z" style="fill: #fff"/>
    <path id="nose_hole" data-name="nose hole" d="M111,128.1h1.3l1.7-.2-2.4-1.2a5.64,5.64,0,0,0-1.2-.4l-.4-.1a5,5,0,0,0-2.4.3l-.1.1.5.5a4.11,4.11,0,0,0,1.1.7A6.85,6.85,0,0,0,111,128.1Z" style="fill: #fff"/>
    <path id="eyebrow" d="M102.3,87.2c-.4-7.3-14.4-11.1-20.1-7.2,3.9.2,9.7.5,12.9,2.8C97.4,84.5,99.2,92,102.3,87.2Z" style="fill: #fff"/>
  </g>
  <g id="right_hand_fingers" data-name="right hand fingers">
    <path d="M188,148.2c-.9,1.4-1.7,2.8-2.5,4.3a33.67,33.67,0,0,0-1.8,4.3c0-.9.1-1.9.1-2.8.2-3.4.4-6.8.8-10.2a82,82,0,0,0-2.7,10c-.3,1.7-.7,3.4-.9,5.1s-.5,3.4-.7,5.2v.2a8.69,8.69,0,0,1-1.4,3.6,31.54,31.54,0,0,1-2.7,3.7c-1.4,1.7-2.9,3.3-4.5,5a26.91,26.91,0,0,0,2.6-5.1,16.63,16.63,0,0,0,1-3.8,15.27,15.27,0,0,0,.1-3.7,56.7,56.7,0,0,0-.9-7.1c-.4-2-.7-3.9-1.2-5.9v-.1a26.67,26.67,0,0,0,2.3-4.4c.4-1,.8-1.9,1.2-2.9s.7-1.9,1.1-2.7l1.2-2.7c.4-.9.8-1.7,1.3-2.6s.9-1.7,1.5-2.6a25.1,25.1,0,0,0,1.5-2.8l-.1-.1a38.22,38.22,0,0,0-4.2,4.7,29.31,29.31,0,0,0-3,5.5,58.48,58.48,0,0,0-2,5.9l-1.1,3.7c-.5-2.1-1-4.3-1.5-6.4.1,4.7.4,9.3.6,13.9s.4,9.2-1.4,12.8a50.11,50.11,0,0,1-3.5,5.5c-.9,1.3-1.9,2.6-2.8,3.9a35.64,35.64,0,0,0-.2-7.3,27.56,27.56,0,0,0-.9-4.2h0a7.26,7.26,0,0,0,2-3.1,13.16,13.16,0,0,0,.7-4.4,20.21,20.21,0,0,0-.7-4.3,22.75,22.75,0,0,0-1.5-3.9,38.92,38.92,0,0,1-1.6-5.8,31,31,0,0,1-.7-6,20,20,0,0,1,.8-6,12.94,12.94,0,0,1,3.2-5.2l-.2-.2a12,12,0,0,0-3.9,5,17.61,17.61,0,0,0-1.5,6.3,45.94,45.94,0,0,0,1.3,12.8v.1l1.2,3.8a25,25,0,0,1,1,3.7,15.28,15.28,0,0,1,.2,3.7,25.37,25.37,0,0,1-.5,2.6h0c0-.1-.1-.2-.1-.4-.7-1.8-1.3-3.6-2-5.3a48.57,48.57,0,0,0-5.3-9.8,79.93,79.93,0,0,1,3.8,10.3c.2.9.5,1.7.7,2.6l.1.3c.08.44.18.87.3,1.3s.1.6.2,1.1a26.78,26.78,0,0,1,.6,5.5,54.44,54.44,0,0,1-.4,10.6h0a14.9,14.9,0,0,1-.9,4.9l-.4,1.1a24.07,24.07,0,0,1-2.7,5.3,13.68,13.68,0,0,1-1.4,1.9l-3.8,4.5c4-2.7,11.7-8,14.7-12,2.3-2.3,4.5-4.7,6.7-7.1a98.78,98.78,0,0,0,6.3-7.7,31.44,31.44,0,0,0,2.7-4.4,19.16,19.16,0,0,0,1.1-2.5,7.28,7.28,0,0,0,.4-3v-2.7a.89.89,0,0,1,.3-.7,24.19,24.19,0,0,0,1.9-2.5c.9-1.4,1.7-2.8,2.5-4.3a43.3,43.3,0,0,0,1.9-4.5,26.7,26.7,0,0,0,1.1-4.9A10.05,10.05,0,0,0,188,148.2Z" style="fill: #fff"/>
  </g>
  <g id="left_hand_fingers" data-name="left hand fingers">
    <path id="left_hand_small_finger_line" data-name="left hand small finger line" d="M119.8,185.1a37.81,37.81,0,0,0-4.9-4.9,33.93,33.93,0,0,0-5.7-3.7,49.21,49.21,0,0,0-6.2-2.9c-2.1-.9-4.3-1.7-6.4-2.4-8.7-3.1-17.8-5.6-26.1-10.5a50.5,50.5,0,0,1-5.9-4.4,26.56,26.56,0,0,1-4.7-5.8,29.87,29.87,0,0,1-2.9-6.9,12.31,12.31,0,0,1-.4-1.8,10.91,10.91,0,0,1-.3-1.8l-.2-1.9v-1.8c.1-4.9,1.2-9.4,1.6-14a25.06,25.06,0,0,0-.2-6.7,16.62,16.62,0,0,0-2.6-6.3,17,17,0,0,1,3.7,6,24.76,24.76,0,0,1,1.1,7.1c0,4.8-.7,9.4-.5,13.8a33.87,33.87,0,0,0,1.1,6.4,23.39,23.39,0,0,0,2.7,5.8,28.47,28.47,0,0,0,4.2,4.9,43,43,0,0,0,5.3,3.9,84.63,84.63,0,0,0,12.2,5.9c4.3,1.8,8.6,3.3,13,5.2a68.18,68.18,0,0,1,12.5,6.6,29.68,29.68,0,0,1,5.4,4.6A24.72,24.72,0,0,1,119.8,185.1Z" style="fill: #fff"/>
    <path id="left_hand_fingers-2" data-name="left hand fingers-2" d="M96.7,193.2c-2.2-2-4.4-3.8-6.8-5.6s-4.7-3.5-7.2-5.1-4.9-3.1-7.4-4.5c-1.8-1.2-3.5-2.1-5.2-3.1s-3.4-1.9-5.1-3a31,31,0,0,1-4.5-3.3,9,9,0,0,1-2.8-3.9h0c0-.1-.1-.2-.1-.3-1.5-3.3-3.1-6.7-4.4-10a77.6,77.6,0,0,1-3.4-10.3,31.73,31.73,0,0,1-.9-5.3,48.73,48.73,0,0,1-.3-5.4,70,70,0,0,1,.9-11A44.35,44.35,0,0,0,47,133.3a34.24,34.24,0,0,0-.3,6.4,9.47,9.47,0,0,1-1.4-2.6,11.46,11.46,0,0,1-.8-3.6c-.1-1.2-.1-2.5-.1-3.8l.1-4v-.1a46.43,46.43,0,0,0-2.2-12.7,18.48,18.48,0,0,0-3.1-5.7,13.38,13.38,0,0,0-5.1-3.8l-.1.3a13.38,13.38,0,0,1,4.4,4.1,22.62,22.62,0,0,1,2.4,5.5,31.29,31.29,0,0,1,.9,6q.15,3,0,6a29.56,29.56,0,0,0-.4,4.2,16.75,16.75,0,0,0,.5,4.4,12.68,12.68,0,0,0,1.9,4.1,8,8,0,0,0,3,2.5c.1,1.4.2,2.7.4,4.1a68.22,68.22,0,0,0,2.8,11c.2.5.3,1,.5,1.4-1.4-1.3-2.7-2.6-4.1-3.8-1.6-1.5-3.3-2.9-4.9-4.4a24.92,24.92,0,0,1-4.1-4.6,17.18,17.18,0,0,1-1.8-5.8c-.4-2.1-.7-4.3-1.1-6.5-.7-4.4-1.5-8.7-2.5-13.1.1,1.6.1,3.2.2,4.8-.3-.7-.6-1.4-.9-2-.4-1-1-1.8-1.5-2.8a25.34,25.34,0,0,0-1.8-2.7,25,25,0,0,0-2.2-2.4,16.8,16.8,0,0,0-2.6-2,16.67,16.67,0,0,0-6-2.4l-.1.2a46.91,46.91,0,0,1,5.2,3.4,31,31,0,0,1,4.3,4.5c1.3,1.6,2.4,3.4,3.6,5.1l1.9,2.9a2.94,2.94,0,0,1,.5,1.6c.1,1.7.2,3.5.2,5.2.1,2.2.2,4.4.4,6.7a17.93,17.93,0,0,0,1.7,6.9,23.67,23.67,0,0,0,4.2,5.5c-1.7-1.2-3.4-2.4-5-3.7a27.4,27.4,0,0,1-3.1-2.8,9.18,9.18,0,0,1-2-3.1v-.1c-.6-1.6-1.3-3.2-2-4.8s-1.4-3.1-2.2-4.7a70.61,70.61,0,0,0-5.1-8.9c1.3,3.2,2.5,6.4,3.7,9.6.3.8.5,1.5.8,2.3a28.6,28.6,0,0,0-2.5-3.3,39.87,39.87,0,0,0-3.6-3.4,18.75,18.75,0,0,0-4.4-2.6,16.55,16.55,0,0,0,2.1,4.7,39.4,39.4,0,0,0,2.9,3.9,39.87,39.87,0,0,0,3.6,3.4,21.12,21.12,0,0,0,2.7,1.8,2,2,0,0,1,1,1.2c.2.6.3,1.1.5,1.7v-.1a10.67,10.67,0,0,0,2.3,4.5c1,1.2,2.1,2.3,3.2,3.4a54.8,54.8,0,0,0,7.1,5.6c2.4,1.8,4.9,3.4,7.4,5l3.7,2.4a33.59,33.59,0,0,1,3.4,2.4l.1.1.6.3a.35.35,0,0,0,.1.2,12.15,12.15,0,0,0,3.8,5.6,34.36,34.36,0,0,0,5.1,3.7c1.8,1.1,3.5,2.1,5.3,3a48.63,48.63,0,0,1,5.1,2.8l.1.1h0c2.6,1.3,5.1,2.7,7.6,4.1s5,2.9,7.4,4.4,4.9,3.1,7.3,4.7,4.8,3.3,7.1,5.1A67.6,67.6,0,0,0,96.7,193.2Z" style="fill: #fff"/>
    <path id="left_hand_thumb_line" data-name="left hand thumb line" d="M95.8,151.4a20.63,20.63,0,0,0-5.6-1.6,26.22,26.22,0,0,0-5.6-.1,13.65,13.65,0,0,0-1.9.4l-.1-.4v-.1l-.1-.2-.1-.2a10.51,10.51,0,0,0-1.1-1.7,20.42,20.42,0,0,0-2.7-3.1,36.76,36.76,0,0,0-3.1-2.6l-3-2.4L71,138.2c-.5-.4-.9-.8-1.4-1.2-.9-.8-1.7-1.7-2.6-2.6a33.57,33.57,0,0,1-2.4-2.9,9.27,9.27,0,0,1-1.1-1.6,4.25,4.25,0,0,0-.5-.7c-.1-.1-.1-.3-.2-.4l-.1-.4h0c-.1-.4-.1-.8-.2-1.2a10.9,10.9,0,0,1-.5,1.1h0a1.23,1.23,0,0,0-.1.6v.6a3.75,3.75,0,0,0,.2,1.1,15,15,0,0,0,.5,2,18.24,18.24,0,0,0,1.7,3.8,19.85,19.85,0,0,0,2.5,3.4l1.5,1.5c.5.4,1,.9,1.5,1.3,1.1.8,2.2,1.6,3.3,2.3s2.3,1.3,3.4,1.9a36.43,36.43,0,0,1,3.2,2,9.27,9.27,0,0,1,1.6,1.1l.2.1h.1s-.1-.2-.1-.1h0l.1.1.2.3c-.1,0-.3.1-.4.1-.9.3-1.7.7-2.6,1.1a16.51,16.51,0,0,0-4.8,3.3l.1.3c1.8-.4,3.6-.8,5.3-1.2a50.34,50.34,0,0,1,5.3-1.1c1.8-.2,3.6-.3,5.4-.5s3.6-.3,5.4-.5Z" style="fill: #fff"/>
  </g>
  <g id="left_nails" data-name="left nails">
    <path id="left_nail_small" data-name="left nail small" d="M55.7,105.3c.2-2-.7-5.7-2.4-6.7a1.31,1.31,0,0,0-1.7.5c-3,4-3.2,15.8-2.6,20.8.4,3.7,4.4,2.8,5.6.3C56.3,116.8,55.6,109.1,55.7,105.3Z" style="fill: #fff"/>
    <path id="left_nail_middle" data-name="left nail middle" d="M35.6,110.3c.1-2.5-1.8-12.9-4.5-15.8a1.85,1.85,0,0,0-1.5-.5c-.5,0-.8.2-1.4,1-.2.4-1,4.2-1.1,4.8C25.8,107.8,33.2,129.4,35.6,110.3Z" style="fill: #fff"/>
    <path id="left_nail_ring" data-name="left nail ring" d="M23.1,117.1c-1.8-4.3-5.5-11.3-9.6-14.2C2,96.7,15.6,117.4,16,119.6,18.3,124.1,24.8,122.4,23.1,117.1Z" style="fill: #fff"/>
    <path id="left_nail_pont" data-name="left nail pont" d="M11.4,114.1c-1.1-1.3-2.1-2.3-2.9-3.2-1.5-1.6-4-3.2-4.5-2.4-1.3,2.1,4.4,13.9,9,16.4a1.59,1.59,0,0,0,1.5,0c1.8-.9,2.1-2.8,1.1-4.8A37.78,37.78,0,0,0,11.4,114.1Z" style="fill: #fff"/>
  </g>
  <g id="right_nails" data-name="right nails">
    <path id="right_nail_point" data-name="right nail point" d="M195.5,125.4a.79.79,0,0,0-.8-.2c-1.1.2-2.6,2.4-3.3,3.8-.5,1-1.1,2.2-1.7,3.7h0a28.23,28.23,0,0,0-2.1,6.9,5,5,0,0,0,.5,3.5,3,3,0,0,0,2,1.4h.4a1.64,1.64,0,0,0,1.3-.6c2.8-2.9,4.5-11.2,4.5-15.4C196.2,126.9,196,125.9,195.5,125.4Z" style="fill: #fff"/>
    <path id="right_nail_middle" data-name="right nail middle" d="M189.6,119.8c-6.2-.1-9.1,17.3-9.4,19.6-.7,5.2,4.7,5.3,6.3.6C188.1,135.1,191.9,120.9,189.6,119.8Z" style="fill: #fff"/>
    <path id="right_nail_ring" data-name="right nail ring" d="M170.8,126.6s-1.9-6.6-2.3-6.9a1.79,1.79,0,0,0-1.8-.6,1.76,1.76,0,0,0-1.3,1c-1.6,3-.5,14.9.1,17h0c2.1,4.9,3.4,5.6,4.1,5.7h.2a1.39,1.39,0,0,0,1.3-.8C172.9,139.6,172.3,130.9,170.8,126.6Z" style="fill: #fff"/>
    <path id="right_nail_small" data-name="right nail small" d="M155.4,149.3c-.3-3.1-3-14.5-6.6-17.1a1.66,1.66,0,0,0-2.1,0c-1.4,1.2-1.7,4.2-1.2,5.8a43.53,43.53,0,0,1,1.4,4.6c.6,3,1.3,6.7,2.8,8.4a4,4,0,0,0,2.6,1.2,4.17,4.17,0,0,0,1.6-.3A2.36,2.36,0,0,0,155.4,149.3Z" style="fill: #fff"/>
  </g>
</svg>
