<svg id="Lager_1" data-name="Lager 1" xmlns="http://www.w3.org/2000/svg" width="84.46" height="81.71" viewBox="0 0 84.46 81.71">
  <g>
    <polygon points="32.3 19.73 27.83 26.1 25.12 31.75 24.17 38.23 24.88 41.53 26.88 43.18 29.12 44.48 27.36 40.12 27.36 34.82 27.12 31.05 29.12 26.21 32.3 19.73" style="fill: #fff"/>
    <path d="M285.24,424.43l-2.57-1.49-2.05-1.69-.73-3.37,1-6.54,2.71-5.66,4.49-6.38.22.13-3.18,6.48-2,4.8.24,3.74v5.29Zm-4.39-3.32,2,1.62,1.89,1.09-1.63-4.06v-5.3l-.24-3.79v0l2-4.83,2.45-5-3.53,5-2.69,5.62-.93,6.44Z" transform="translate(-255.85 -379.64)" style="fill: #fff"/>
  </g>
  <path d="M301.19,447.72c-.26-.37-.5-.74-.74-1.11-.12-.18-.23-.37-.35-.56l-.34-.57a.17.17,0,0,1,0-.1v0q-.08-.94-.12-1.89c0-.63,0-1.26-.05-1.89,0-.31,0-.63,0-.94v-.47l0-.48.19-1.88,0,.13c-.2-.39-.42-.77-.64-1.16s-.46-.76-.7-1.13c-.48-.74-1-1.46-1.52-2.17l0,.05-1.63-1.36c-.53-.47-1.06-.94-1.58-1.42l.06,0-1.74-1.13-.85-.59c-.29-.19-.56-.4-.85-.6l.06,0c-.6-.32-1.2-.66-1.79-1l-.89-.52-.88-.54,0,0,0,0-1-1.09c-.31-.38-.64-.74-.94-1.13a0,0,0,0,1,0-.07,0,0,0,0,1,.06,0c.4.28.79.58,1.18.87s.77.61,1.14.92l-.08-.06.95.41.94.42,1.86.88,0,0h0c.29.19.59.37.87.57l.85.6c.56.4,1.13.8,1.68,1.21l0,0,0,0c.5.5,1,1,1.49,1.52s.95,1,1.43,1.57l0,0v0c.42.78.85,1.56,1.31,2.31.23.38.47.75.72,1.12s.5.73.77,1.08a.17.17,0,0,1,0,.1v0l.12,1.88c0,.63.07,1.26.07,1.88s0,1.26,0,1.89,0,1.25-.08,1.88l0-.14.24.61a6.62,6.62,0,0,1,.24.62c.16.41.31.82.44,1.25,0,0,0,.06,0,.06A.06.06,0,0,1,301.19,447.72Z" transform="translate(-255.85 -379.64)" style="fill: #fff"/>
  <polygon points="29.83 16.79 26.3 20.56 24.17 22.68 21.7 25.86 21.11 29.75 21.82 33.76 22.76 36.11 22.76 30.46 24.17 25.63 29.83 16.79" style="fill: #fff"/>
  <path d="M289.1,430a7.36,7.36,0,0,1-.85.25,8.65,8.65,0,0,1-.86.16,10.9,10.9,0,0,1-1.71.1l.17,0a11.72,11.72,0,0,1-1.57.43l-.81.12a8,8,0,0,1-.85,0,5.15,5.15,0,0,1,.68-.5c.24-.15.48-.29.72-.41a11.52,11.52,0,0,1,1.49-.64l.08,0h.09a12.26,12.26,0,0,1,1.71.1,8.65,8.65,0,0,1,.86.16A5.87,5.87,0,0,1,289.1,430Z" transform="translate(-255.85 -379.64)" style="fill: #fff"/>
  <path d="M278.38,422.47q.19.3.36.6c.11.2.23.4.32.61.21.41.4.83.57,1.25l-.11-.18c.3.25.58.51.87.78l-.08-.06a22,22,0,0,1,2.52,1.88l0,0c.22.24.43.49.64.76a9.81,9.81,0,0,1,.58.81,9.42,9.42,0,0,1-.89-.47c-.28-.17-.56-.35-.83-.54l0,0a22.08,22.08,0,0,1-2.67-1.66l-.05,0,0,0c-.26-.28-.53-.57-.78-.87l-.09-.11,0-.07c-.1-.44-.19-.89-.26-1.34,0-.23-.06-.46-.09-.69S278.38,422.71,278.38,422.47Z" transform="translate(-255.85 -379.64)" style="fill: #fff"/>
  <path d="M296.76,439.44c-1.6-.55-3.17-1.16-4.74-1.78l-2.34-1c-.77-.33-1.56-.62-2.35-.92l-2.35-.94-1.17-.47-1.15-.53c-1.53-.71-3.06-1.42-4.57-2.16h0a.64.64,0,0,1-.28-.26l-1-1.72-1-1.73v0a.51.51,0,0,1-.08-.29c0-1.18.06-2.36.11-3.54v-.07c.12-.65.24-1.29.38-1.94l.39-1.93v.05c.05-.78.09-1.57.15-2.35l.05.12-1.28-1.65c.52.46,1,.93,1.54,1.41a.11.11,0,0,1,.05.09v0c.06.78.1,1.57.16,2.35v0l-.19,2c-.06.66-.14,1.31-.22,2v-.08c.05,1.18.08,2.36.1,3.54l-.08-.32,1,1.69,1,1.7-.29-.27c1.52.7,3,1.44,4.55,2.17l1.13.55,1.15.51,2.3,1c1.54.69,3,1.48,4.52,2.26S295.3,438.58,296.76,439.44Z" transform="translate(-255.85 -379.64)" style="fill: #fff"/>
  <path d="M291.93,446.28c-.87-.62-1.74-1.23-2.59-1.86l-2.57-1.89,0,0L283.88,441,281,439.32l.06,0-3.59-1.46a.71.71,0,0,1-.22-.15v0L275,435.28a.94.94,0,0,1-.12-.22h0l-1.48-4.59c-.12-.38-.29-.75-.43-1.13l-.42-1.12-.85-2.25h0a.67.67,0,0,1,0-.42c.32-1.08.63-2.16,1-3.24v.06l.76-3.53v0a.58.58,0,0,1,.43-.44l1.24-.27-.43.55.09-3.61v.09l-.53-3.3.7,0-.81,2.47v-.06l-.25,2.19c-.08.73-.18,1.46-.28,2.19,0-.74,0-1.47,0-2.21l0-2.2v-.05l.6-2.53a.36.36,0,0,1,.43-.26.36.36,0,0,1,.26.26v0l.75,3.25s0,.05,0,.07v0l.09,3.61a.57.57,0,0,1-.41.54h0l-1.22.33.43-.46-.65,3.55v0c-.3,1.09-.61,2.17-.92,3.25l0-.43.89,2.27c.29.75.6,1.5.85,2.27l1.45,4.64-.13-.23,2.09,2.5-.23-.16c1.18.52,2.36,1.05,3.54,1.6h0l0,0c.94.6,1.89,1.18,2.83,1.79l2.81,1.81h0l2.38,2.12C290.36,444.84,291.15,445.55,291.93,446.28Z" transform="translate(-255.85 -379.64)" style="fill: #fff"/>
  <path d="M274.65,434.51l-3.43-3.57c-.58-.58-1.1-1.22-1.65-1.84l-1.63-1.85,0,0a.36.36,0,0,1-.09-.27l.2-4.48v0l-.49-5,.93,4.92h0v0l.2,4.48-.12-.29,1.78,1.69c.6.56,1.17,1.15,1.8,1.68l3.71,3.23a.87.87,0,0,1-1.14,1.31Z" transform="translate(-255.85 -379.64)" style="fill: #fff"/>
  <g>
    <polyline points="6.97 36.11 9.91 38.71 12.25 41.87" style="fill: #fff"/>
    <g>
      <polyline points="6.97 36.11 9.91 38.71 12.25 41.87" style="fill: #fff"/>
      <polygon points="12.11 41.98 9.79 38.82 6.85 36.24 7.08 35.98 10.05 38.6 12.39 41.77 12.11 41.98" style="fill: #fff"/>
    </g>
  </g>
  <path d="M268.1,413.4c.43.19.84.39,1.24.61s.8.44,1.19.67a.3.3,0,0,1,.08.08l.06.09c.47.79.91,1.58,1.32,2.4a.46.46,0,0,1,.06.22v0a37.42,37.42,0,0,1-.3,6.6l-.06-.18q.19.44.36.87c.11.3.22.6.32.9-.24-.22-.45-.45-.67-.68l-.62-.72a.19.19,0,0,1,0-.09v-.1a38.41,38.41,0,0,1-.31-6.6l.07.28c-.35-.84-.68-1.69-1-2.56l.14.18c-.32-.32-.64-.64-.95-1S268.39,413.76,268.1,413.4Z" transform="translate(-255.85 -379.64)" style="fill: #fff"/>
  <polygon points="16.28 51.73 10.45 48.49 9.7 46.17 7.24 40.04 7.88 39.78 10.35 45.93 11.03 48.02 16.61 51.13 16.28 51.73" style="fill: #fff"/>
  <g>
    <line x1="4.96" y1="41.06" x2="10.03" y2="46.06" style="fill: #fff"/>
    <g>
      <line x1="4.96" y1="41.06" x2="10.03" y2="46.06" style="fill: #fff"/>
      <rect x="263" y="419.65" width="0.69" height="7.12" transform="translate(-478.71 -66.25) rotate(-45.38)" style="fill: #fff"/>
    </g>
  </g>
  <g>
    <polygon points="11.68 37.58 12.74 36.7 12.25 34.39 11.12 31.07 10.55 30.01 10.55 33.76 10.97 36.7 11.68 37.58" style="fill: #fff"/>
    <path d="M267.53,417.22a10.86,10.86,0,0,0,.79-1.21l-.15.43a23.89,23.89,0,0,1-.95-2.22l0,.11c-.27-.53-.52-1.06-.76-1.6s-.45-1.08-.66-1.63l.08.18c-.19-.36-.39-.7-.57-1.06l2.27-.57c0,.31,0,.63,0,.94s0,.62,0,.94c0,.62-.1,1.24-.18,1.87v-.14a22.14,22.14,0,0,1-.16,3l-.08-.18.17.5A4.15,4.15,0,0,0,267.53,417.22Zm0,0-.44-.26c-.18-.11-.36-.24-.55-.38h0l-.08-.18a22.61,22.61,0,0,1-1-2.86v-.14c-.09-.63-.15-1.25-.19-1.87,0-.32,0-.63,0-.94s0-.63,0-.94a1.2,1.2,0,0,1,2.24-.62l0,.05c.2.35.37.71.56,1.07v0a.53.53,0,0,1,.06.14c.17.56.33,1.13.48,1.7s.27,1.14.38,1.72l0,.11c.05.79.06,1.59,0,2.41v.2a.28.28,0,0,1-.14.22A8.47,8.47,0,0,1,267.53,417.22Z" transform="translate(-255.85 -379.64)" style="fill: #fff"/>
  </g>
  <g>
    <polygon points="7.93 39.91 8.22 37.88 6.38 36.11 4.96 33.79 4.96 36.11 6.59 38.71 7.93 39.91" style="fill: #fff"/>
    <path d="M263.79,419.56a5.48,5.48,0,0,0-.15-1.25c-.08-.35-.17-.62-.21-.88l.19.56c-.38-.22-.74-.46-1.09-.7-.19-.12-.35-.25-.53-.37l-.51-.39,0,0-.13-.18c-.28-.36-.55-.72-.8-1.1s-.5-.76-.74-1.15l2.25-.63c0,.39,0,.78,0,1.17s-.05.77-.08,1.16l-.17-.59c.23.46.45.92.65,1.4s.38,1,.55,1.46l-.11-.12c.11.2.2.43.34.71A5.1,5.1,0,0,0,263.79,419.56Zm0,0c-.18-.08-.43-.15-.74-.28a6.11,6.11,0,0,1-1-.49l-.11-.13c-.38-.36-.74-.74-1.08-1.13s-.66-.78-1-1.19a.73.73,0,0,1-.15-.39l0-.19c0-.39-.06-.78-.07-1.16s0-.78,0-1.17a1.2,1.2,0,0,1,2.23-.64h0c.23.39.47.78.68,1.18s.42.81.62,1.22L263,415c.14.17.28.33.41.5s.27.33.4.51c.25.35.5.7.74,1.07l.15.23a.37.37,0,0,1,0,.32,7.49,7.49,0,0,1-.49,1.17C264,419.11,263.88,419.36,263.79,419.56Z" transform="translate(-255.85 -379.64)" style="fill: #fff"/>
  </g>
  <g>
    <polygon points="5.81 40.54 5.81 39.34 2.14 36.7 1.22 35.52 2.56 38.56 4.47 40.54 5.81 40.54" style="fill: #fff"/>
    <path d="M261.67,420.19a6.59,6.59,0,0,0-.43-1.2l.18.34c-.37-.13-.73-.28-1.09-.43s-.7-.32-1-.49-.68-.35-1-.54-.66-.38-1-.58a.64.64,0,0,1-.15-.13l-.09-.1-.49-.57-.46-.58,2.06-1.23c.22.5.43,1,.63,1.54s.37,1,.53,1.58l-.2-.3a20.64,20.64,0,0,1,1.52,2.36l-.34-.14A9.58,9.58,0,0,0,261.67,420.19Zm0,0a7.16,7.16,0,0,1-1.35.46.2.2,0,0,1-.13,0l-.2-.12a19.75,19.75,0,0,1-2.31-1.6.24.24,0,0,1-.06-.08l-.13-.21c-.29-.48-.56-1-.82-1.46s-.48-1-.71-1.5v0a1.2,1.2,0,0,1,.61-1.59,1.21,1.21,0,0,1,1.45.37l.45.6.44.61-.24-.23c.29.24.58.48.86.74s.56.51.83.78.54.54.8.83.51.58.75.89l.14.18a.21.21,0,0,1,0,.17A6.48,6.48,0,0,1,261.67,420.19Z" transform="translate(-255.85 -379.64)" style="fill: #fff"/>
  </g>
  <polygon points="34.4 0.61 30.86 1.76 26.77 4.94 22.52 10.69 21.11 14.22 20.43 17.76 20.43 21.65 21.11 23.15 22.11 16.79 24.17 12.54 26.3 8.21 30.3 4.15 34.4 0.61" style="fill: #fff"/>
  <path d="M306.86,446.9c0-.35,0-.7,0-1s0-.69.06-1,.05-.69.09-1l.11-1v.14c-.32-1.49-.57-3-.77-4.5l.05.15c-.19-.41-.39-.82-.57-1.23l-.54-1.25,0-.05a.25.25,0,0,1,0-.19c.15-.45.29-.9.45-1.35s.33-.89.52-1.33c0,.48-.06,1-.11,1.42s-.11.95-.17,1.42l0-.24c.24.38.47.77.7,1.16s.45.79.67,1.19a.56.56,0,0,1,0,.12v0c.27,1.49.49,3,.65,4.51v.05a.34.34,0,0,1,0,.1l-.25,1c-.08.34-.18.67-.26,1s-.2.67-.3,1S307,446.57,306.86,446.9Z" transform="translate(-255.85 -379.64)" style="fill: #fff"/>
  <path d="M310.4,446.9c0-.51,0-1,.05-1.51s.08-1,.14-1.49c.11-1,.27-2,.45-2.94l0,.27c-.2-.56-.38-1.12-.56-1.68s-.34-1.14-.48-1.71l.05.1c-.28-.45-.54-.91-.8-1.37s-.51-.93-.73-1.43c.41.36.77.75,1.14,1.13s.71.79,1.05,1.2l0,0,0,.06c.24.55.45,1.1.67,1.65s.4,1.11.59,1.68h0a.53.53,0,0,1,0,.25c-.21,1-.43,1.94-.7,2.89-.13.48-.28,1-.44,1.43S310.6,446.43,310.4,446.9Z" transform="translate(-255.85 -379.64)" style="fill: #fff"/>
  <path d="M311.9,440a18.55,18.55,0,0,1-.5-2c-.08-.34-.14-.69-.2-1s-.11-.69-.16-1c-.2-1.38-.34-2.77-.41-4.16v0a.22.22,0,0,1,0-.14c.15-.44.3-.88.47-1.32s.34-.87.52-1.3l0-.06a.13.13,0,0,1,.06-.07c.49-.32,1-.64,1.5-.92-.36.47-.76.9-1.15,1.33l.08-.13q-.12.69-.27,1.38c-.1.45-.21.91-.32,1.36l0-.18c.18,1.38.31,2.77.37,4.16q0,.53,0,1.05c0,.35,0,.7,0,1.05A18.63,18.63,0,0,1,311.9,440Z" transform="translate(-255.85 -379.64)" style="fill: #fff"/>
  <path d="M312.17,447.34c.4-.88.85-1.73,1.32-2.57.22-.42.48-.83.71-1.24s.5-.82.75-1.23l-.08.27c0-.43,0-.85,0-1.28s0-.84,0-1.27v.05c-.07-.81-.13-1.63-.17-2.45,0-.4,0-.81-.05-1.22s0-.82,0-1.23v0c-.05-.48-.09-1-.13-1.44s-.06-1-.07-1.45q.24.69.45,1.38c.15.46.27.93.4,1.39v0c.07.41.12.81.19,1.21s.11.81.16,1.22c.11.81.2,1.62.27,2.44v0h0c0,.43,0,.85,0,1.27s0,.85,0,1.28v0a.53.53,0,0,1-.08.22c-.28.39-.56.78-.85,1.16s-.57.77-.87,1.14C313.44,445.89,312.83,446.63,312.17,447.34Z" transform="translate(-255.85 -379.64)" style="fill: #fff"/>
  <path d="M319.06,433.3c0,.41,0,.82-.06,1.22s-.06.81-.1,1.21-.08.81-.13,1.21l-.16,1.2v-.08c0,.72.06,1.44.06,2.16s0,1.45,0,2.17h0a.51.51,0,0,1-.19.39c-.49.37-1,.74-1.46,1.09s-1,.71-1.49,1.06-1,.68-1.52,1-1,.65-1.57.95c.42-.46.85-.89,1.29-1.31s.88-.84,1.34-1.24.9-.81,1.37-1.2.93-.78,1.4-1.16l-.2.4c0-.72,0-1.44,0-2.17s0-1.44.06-2.16V438l.29-1.18c.09-.39.21-.78.31-1.17s.23-.78.34-1.17S318.92,433.69,319.06,433.3Z" transform="translate(-255.85 -379.64)" style="fill: #fff"/>
  <path d="M321.8,434a5.27,5.27,0,0,1-.31,1.45,8,8,0,0,1-.57,1.31,8.2,8.2,0,0,1-.78,1.2,4.22,4.22,0,0,1-1.08,1,8,8,0,0,1,.37-1.42,8.88,8.88,0,0,1,.58-1.3,9.73,9.73,0,0,1,.77-1.2A5.65,5.65,0,0,1,321.8,434Z" transform="translate(-255.85 -379.64)" style="fill: #fff"/>
  <g>
    <polyline points="62.77 49.37 60.65 52.67 59.5 55.5" style="fill: #fff"/>
    <polygon points="59.58 55.53 59.42 55.47 60.57 52.64 62.69 49.32 62.84 49.42 60.72 52.72 59.58 55.53" style="fill: #fff"/>
  </g>
  <g>
    <polyline points="65.15 54.25 65.15 52.44 66.57 50.37 67.81 48.25 68.33 47.46 67.98 50.37 67.45 52.44 65.95 53.66" style="fill: #fff"/>
    <path d="M321,433.89a11.92,11.92,0,0,1-.59-1.81V432l.1-.26a20.27,20.27,0,0,1,1.05-2.32l0,.06c.12-.26.23-.53.36-.79s.25-.52.39-.77a7,7,0,0,1,.42-.76c.15-.25.31-.5.48-.74l0-.05a1.2,1.2,0,0,1,2.17.86c0,.25-.07.49-.11.73s-.08.48-.13.73c-.09.48-.2,1-.32,1.44l0,.13c-.13.33-.28.66-.43,1s-.31.65-.48,1l-.13.26a.19.19,0,0,1-.08.07,12.17,12.17,0,0,1-1.89.74,12.76,12.76,0,0,1,1.11-1.7l-.21.32c0-.36,0-.72.05-1.08s.07-.72.11-1.08l0,.13c0-.49,0-1,0-1.47,0-.25,0-.49.05-.74s.05-.48.07-.73l2.2.82c-.14.23-.3.45-.46.68l-.45.7c-.15.24-.31.47-.47.7s-.33.46-.5.69l0,.06a20.24,20.24,0,0,1-1.78,1.81l.1-.33A13.08,13.08,0,0,1,321,433.89Z" transform="translate(-255.85 -379.64)" style="fill: #fff"/>
  </g>
  <g>
    <polygon points="62.77 52.67 62.77 50.85 64 48.25 64.58 46.84 64.58 49.75 64.58 51.43 63.67 53.02 62.77 52.67" style="fill: #fff"/>
    <path d="M318.62,432.31a7.24,7.24,0,0,1-.62-1.82l.06-.26a16.52,16.52,0,0,1,.56-2.15c.11-.35.24-.69.34-1s.23-.69.36-1a1.19,1.19,0,0,1,2.31.39v.06c0,.38,0,.77,0,1.15s0,.76-.05,1.15-.07.76-.12,1.15-.11.76-.18,1.15l-.06.31a.23.23,0,0,1-.05.1,14.09,14.09,0,0,1-1.32,1.36l-.16.15a.23.23,0,0,1-.3,0A4.23,4.23,0,0,1,318.62,432.31Zm0,0a7.12,7.12,0,0,0,1,0l-.46.17a15.22,15.22,0,0,1,.5-1.82l-.12.42c-.07-.39-.13-.77-.18-1.15s-.09-.77-.12-1.15,0-.77,0-1.15,0-.77,0-1.15l2.31.45c-.14.35-.31.69-.47,1-.09.17-.16.34-.26.5l-.3.48a17.73,17.73,0,0,1-1.33,1.83l.06-.27C319.09,431,318.85,431.55,318.62,432.31Z" transform="translate(-255.85 -379.64)" style="fill: #fff"/>
  </g>
  <g>
    <polygon points="57.91 52.44 57.38 49.93 57.91 47.46 58.61 45.07 58.61 47.72 58.97 51.43 57.91 52.44" style="fill: #fff"/>
    <path d="M313.76,432.08c-.14-.25-.35-.57-.58-1a9,9,0,0,1-.67-1.39v-.3c0-.43,0-.86.06-1.28s.07-.85.12-1.27l0-.08c.09-.41.17-.82.27-1.22s.21-.8.33-1.2a1.2,1.2,0,0,1,2.36.29v0c0,.22,0,.44,0,.67s0,.44,0,.66c0,.44,0,.88-.08,1.32v-.1a23,23,0,0,1-.28,3.77l0,.23a.24.24,0,0,1-.11.16,6.94,6.94,0,0,1-.8.42C314.1,431.94,313.9,432,313.76,432.08Zm0,0a3.84,3.84,0,0,0,.47-.76c.11-.23.18-.43.26-.59l-.15.39a21.87,21.87,0,0,1-1-3.65v-.11c0-.44-.07-.88-.08-1.32,0-.22,0-.44,0-.66s0-.45,0-.67l2.36.35c-.12.39-.24.79-.38,1.18s-.28.78-.43,1.17l0-.08c-.13.4-.26.8-.41,1.2s-.31.8-.48,1.2v-.31c0,.33-.07.68-.13,1.12A7.5,7.5,0,0,0,313.76,432.08Z" transform="translate(-255.85 -379.64)" style="fill: #fff"/>
  </g>
  <g>
    <polygon points="51.72 55.5 50.75 52.44 51.23 49.93 51.72 48.75 51.72 50.9 52.25 52.67 52.25 54.88 51.72 55.5" style="fill: #fff"/>
    <path d="M307.57,435.14c-.21-.27-.51-.64-.85-1.12-.17-.24-.35-.5-.51-.78s-.33-.59-.47-.89a.27.27,0,0,1,0-.12v-.32c0-.22,0-.43,0-.65s0-.43.05-.64,0-.42.06-.64,0-.42.08-.63c0,0,0-.06,0-.09l.05-.14c.14-.4.3-.79.45-1.19h0a1.2,1.2,0,0,1,2.33.46c0,.36,0,.72,0,1.08s0,.72-.07,1.08l-.05-.33c.07.31.11.61.17.92s.09.61.13.92l0,.25c-.06.37-.14.74-.23,1.11s-.2.73-.32,1.1l-.07.19s0,0,0,0a2.35,2.35,0,0,1-.45.26Zm0,0a1.9,1.9,0,0,0,.21-.47c0-.14.06-.26.08-.35l-.07.2a11.4,11.4,0,0,1-.32-1.1q-.14-.56-.24-1.11l0,.25c-.15-.27-.27-.56-.41-.84s-.25-.57-.36-.85l0-.12v-.2c0-.36-.06-.72-.07-1.08s0-.72,0-1.08l2.33.47c-.17.39-.33.78-.52,1.16l.07-.22c-.05.2-.1.41-.16.62s-.11.41-.18.61-.12.41-.2.61-.14.41-.22.61l0-.44c0,.2,0,.41,0,.64l0,.75A11.67,11.67,0,0,0,307.57,435.14Z" transform="translate(-255.85 -379.64)" style="fill: #fff"/>
  </g>
  <g>
    <polygon points="42.97 0.17 48.89 1.05 54.19 3.27 58.52 6.62 61.13 9.89 63.67 14.22 65.68 19.73 66.44 24.21 66.48 30.09 65.15 36.11 63.21 41.06 61.13 44.48 59.5 47.07 59.55 41.81 60.24 40.19 60.29 34.99 59.91 30.84 58.57 25.14 57.07 20.72 60.73 26.45 62.35 36.7 63.21 32.11 63.21 25.54 61.88 17.92 58.97 11.13 54.86 5.69 49.09 2.29 42.97 0.17" style="fill: #fff"/>
    <path d="M315.17,427.32l.08-5.94.67-1.58.05-5.16-.38-4.14-1.34-5.68-1.95-5.75,4.46,7,1.45,9.26.68-3.61v-6.54l-1.32-7.57-2.9-6.75-4.08-5.4-5.74-3.38-6.09-2.1.09-.34,6,.9,5.34,2.23,4.36,3.39,2.61,3.27,2.55,4.35,2,5.54.76,4.51,0,5.92v0l-1.33,6-1.95,5-2.09,3.44Zm.41-5.83-.05,4.61,1.31-2.07,2.07-3.41,1.93-4.93,1.32-6-.05-5.85-.74-4.46-2-5.47-2.53-4.31-2.58-3.23L310,383.06l-5.26-2.19-4.07-.61,4.36,1.51,5.86,3.45,4.13,5.49,2.93,6.82,1.32,7.62v6.6l-1.05,5.61-1.76-11.2-2.88-4.5,1,3.07,1.34,5.71.39,4.18-.06,5.28Z" transform="translate(-255.85 -379.64)" style="fill: #fff"/>
  </g>
  <path d="M291.18,384.32v4.42l.75,3.49,1.68,3.45,3.15,4.42,3.25,3.16,3.32,3.42,3.18,3.27,3,4.24,1.28,2.61.79,2.76-.53-5.45-1.72-4.78-2-3.05-2.83-2.43s-2.52-2-2.6-2.12-3.1-3.18-3.1-3.18-2.52-3.36-2.52-3.53-2.25-4.6-2.25-4.6l-1.77-2.78Z" transform="translate(-255.85 -379.64)" style="fill: #fff"/>
  <polygon points="34.22 9.01 34.22 13.21 34.71 16.79 36.08 20.54 39.3 25.58 42.48 29.78 45.8 33.76 48.14 37.51 49.77 40.74 50.57 43.66 50.75 46.48 50.13 49.31 49.02 52.13 46.24 56.07 45.53 56.81 45.38 57.09 48.23 55.5 49.77 52.67 50.48 49.93 51.5 46.53 52.52 45.67 52.52 47.85 52.69 50.85 54.72 46.48 54.55 43.08 53.53 39.46 50.04 34.24 46.68 30.22 41.47 24.08 38.2 19.09 36.08 15.46 34.22 9.01" style="fill: #fff"/>
  <polygon points="36.08 29.16 36.08 27.82 34.22 26.45 32.3 25.7 29.83 25.7 29.12 26.21 31.55 26.45 34.22 27.43 34.73 29.16 36.08 29.16" style="fill: #fff"/>
  <path d="M283,411.35l1.94-.29a3,3,0,0,0,.78-.23l1.74-.79.15-.06h0a2.34,2.34,0,0,1,1.67,0l.64.25a3.19,3.19,0,0,1,1.25.86l.65.7a3.17,3.17,0,0,1,.59.94l.29.68-1,0a2.12,2.12,0,0,0-1,.27h0a3,3,0,0,1-1,.37l-1,.19a3,3,0,0,1-1.57-.15l-.17-.06a3.28,3.28,0,0,1-1.3-.9l-.29-.34a4.45,4.45,0,0,0-1.64-1.17Z" transform="translate(-255.85 -379.64)" style="fill: #fff"/>
  <polyline points="36.43 47.07 38.13 46.07 39.61 45.07 40.91 46.06 42.09 45.07 42.97 45.67 44.16 46.34 44.77 46.84 45.53 47.07 45.9 47.46 44.47 47.97 42.97 47.46 40.91 47.46 38.9 47.46 37.63 47.97 36.85 47.97 36.08 47.07" style="fill: #fff"/>
  <polygon points="37.63 48.75 38.97 49.93 40.39 50.37 42.58 50.37 43.57 49.37 44.47 48.75 43.43 48.25 40.91 48.25 38.34 48.25 37.63 48.75" style="fill: #fff"/>
  <rect x="38.27" y="42.24" width="1.48" height="0.59" style="fill: #fff"/>
  <g>
    <path d="M264.59,452.21v8.06h2.49v.94H263.6v-9Z" transform="translate(-255.85 -379.64)" style="fill: #fff"/>
    <path d="M273.51,458.66h-3.83l-1.08,2.54h-1.11l4.13-9.44,4.05,9.43h-1.1Zm-3.19-8.73a.69.69,0,1,1-.68.69A.69.69,0,0,1,270.32,449.93Zm2.8,7.79-1.52-3.6-1.53,3.61Zm-.23-7.79a.69.69,0,1,1-.69.69A.69.69,0,0,1,272.89,449.93Z" transform="translate(-255.85 -379.64)" style="fill: #fff"/>
    <path d="M283.64,454.17a4.45,4.45,0,0,0-1.17-.84,4,4,0,0,0-1.56-.35,3.72,3.72,0,0,0,0,7.43,3.75,3.75,0,0,0,1.67-.42,4.25,4.25,0,0,0,1-.76v1.24a4.66,4.66,0,0,1-2.71.88,4.66,4.66,0,1,1,0-9.31,4.24,4.24,0,0,1,2.66.88Z" transform="translate(-255.85 -379.64)" style="fill: #fff"/>
    <path d="M286.59,456l3.82-3.87h1.35l-4.2,4.2,4.35,4.8h-1.37l-3.7-4.13-.25.26v3.87h-1l0-9h1Z" transform="translate(-255.85 -379.64)" style="fill: #fff"/>
    <path d="M294.8,452.16a4,4,0,0,1,2.19.5,2.5,2.5,0,0,1-1.27,4.48l2.86,4h-1.21l-2.75-3.93h-.26v3.94h-1v-9Zm-.44,4.18H295c1.24,0,2-.59,2-1.65a1.4,1.4,0,0,0-.72-1.32,2.53,2.53,0,0,0-1.29-.25h-.61Z" transform="translate(-255.85 -379.64)" style="fill: #fff"/>
    <path d="M305.22,458.61h-3.83l-1.08,2.54h-1.1l4.12-9.44,4.06,9.43h-1.11Zm-.39-.94-1.52-3.6-1.53,3.6Z" transform="translate(-255.85 -379.64)" style="fill: #fff"/>
    <path d="M313,456l3.83-3.86h1.35L314,456.33l4.36,4.8H317L313.27,457l-.26.25v3.88h-1l0-9h1Z" transform="translate(-255.85 -379.64)" style="fill: #fff"/>
    <path d="M320.78,452.12v8.06h2.48v.94h-3.49v-9Z" transform="translate(-255.85 -379.64)" style="fill: #fff"/>
    <path d="M323.78,456.62a4.69,4.69,0,1,1,4.69,4.65A4.6,4.6,0,0,1,323.78,456.62Zm1,0a3.66,3.66,0,1,0,3.65-3.72A3.67,3.67,0,0,0,324.81,456.62Z" transform="translate(-255.85 -379.64)" style="fill: #fff"/>
    <path d="M336.53,452.09a4,4,0,0,1,2.19.5,2.5,2.5,0,0,1-1.28,4.48l2.87,4H339.1l-2.75-3.93h-.26v3.94h-1v-9Zm-.44,4.18h.64c1.24,0,2-.6,2-1.66a1.41,1.41,0,0,0-.72-1.32,2.53,2.53,0,0,0-1.29-.25h-.61Z" transform="translate(-255.85 -379.64)" style="fill: #fff"/>
  </g>
</svg>
